<?xml version="1.0" standalone="no"?>
<!DOCTYPE svg PUBLIC "-//W3C//DTD SVG 1.1//EN" "http://www.w3.org/Graphics/SVG/1.1/DTD/svg11.dtd" >
<svg xmlns="http://www.w3.org/2000/svg">
<metadata>
This is a custom SVG webfont generated by Font Squirrel.
Copyright   : Copyright  1989 2002 Adobe Systems Incorporated  All Rights Reserved
Designer    : Heinrich Jost Louis Hll
Foundry URL : httpwwwadobecomtype
</metadata>
<defs>
<font id="BauerBodoniStd2BlackItalic" horiz-adv-x="1366" >
<font-face units-per-em="2048" ascent="1505" descent="-543" />
<missing-glyph horiz-adv-x="626" />
<glyph unicode=" "  horiz-adv-x="626" />
<glyph unicode="&#x09;" horiz-adv-x="626" />
<glyph unicode="&#xa0;" horiz-adv-x="626" />
<glyph unicode="!" horiz-adv-x="909" d="M180 168q0 78 53.5 131t131 53t131 -53t53.5 -131t-53.5 -131t-131 -53t-131 53t-53.5 131zM428 461q49 227 49 444q0 119 -31 312q162 129 279 253q84 -184 162 -262q-160 -184 -254 -350t-174 -397h-31z" />
<glyph unicode="&#x22;" horiz-adv-x="1138" d="M373 1337q0 133 108.5 133t108.5 -133q0 -72 -10 -157l-29 -310q-8 -88 -69.5 -88t-69.5 88l-29 310q-10 85 -10 157zM748 1337q0 133 108.5 133t108.5 -133q0 -72 -11 -157l-28 -310q-8 -88 -69.5 -88t-70.5 88l-28 310q-10 85 -10 157z" />
<glyph unicode="#" horiz-adv-x="1253" d="M123 401l27 185h182l33 241h-183l27 185h182l55 401h193l-55 -401h198l56 401h192l-55 -401h180l-27 -185h-180l-33 -241h181l-27 -185h-180l-58 -401h-192l57 401h-198l-58 -401h-192l57 401h-182zM524 586h199l33 241h-199z" />
<glyph unicode="$" horiz-adv-x="1253" d="M0 23l125 471h43q-4 -33 -4 -43q0 -152 75.5 -265.5t213.5 -140.5l151 518l-104 53q-35 18 -91.5 58.5t-85 78.5t-51 95t-22.5 125q0 211 151.5 334t368.5 123q35 0 88 -5l35 115h53l-37 -123q49 -8 127 -34.5t119 -26.5q37 0 65.5 22.5t36.5 59.5h39l-122 -451h-39 q0 334 -240 381l-129 -440q12 -6 51 -24l54 -24q15 -7 50 -26.5t51.5 -31l45.5 -33t43 -40l33.5 -46t27.5 -55t15.5 -63.5t7.5 -75q0 -254 -184.5 -390t-446.5 -136q-16 0 -27 2l-53 -181h-53l57 191q-70 8 -185.5 44t-141.5 36q-55 0 -72 -53h-39zM504 35h26 q125 0 227.5 72.5t104.5 193.5q0 78 -54 131t-157 107zM557 1159q0 -125 162 -207l125 424q-12 2 -41 2q-98 0 -172 -61.5t-74 -157.5z" />
<glyph unicode="%" horiz-adv-x="1933" d="M242 973q0 186 112.5 321.5t294.5 135.5q129 0 207 -79t78 -208q0 -186 -112.5 -321.5t-295.5 -135.5q-129 0 -206.5 79t-77.5 208zM426 809q0 -35 20.5 -59.5t55.5 -24.5q53 0 81.5 36t57.5 132l66 225q43 133 43 189q0 35 -20.5 59.5t-55.5 24.5q-53 0 -82 -36 t-57 -132l-66 -226q-43 -133 -43 -188zM518 -45l916 1503h98l-924 -1503h-90zM1104 270q0 186 112.5 321.5t294.5 135.5q129 0 207 -79t78 -208q0 -186 -112.5 -321t-294.5 -135q-129 0 -207 78.5t-78 207.5zM1288 106q0 -35 20.5 -59t55.5 -24q53 0 82 35.5t57 131.5 l66 226q43 133 43 188q0 35 -20.5 59.5t-55.5 24.5q-53 0 -82 -36t-57 -132l-66 -225q-43 -134 -43 -189z" />
<glyph unicode="&#x26;" horiz-adv-x="1705" d="M143 399q0 82 36 149.5t101.5 118t126 83t142.5 65.5q-14 43 -14 137q0 174 112.5 318.5t284.5 144.5q117 0 183.5 -60.5t66.5 -170.5q0 -113 -82 -186.5t-207 -110.5q41 -139 160 -406q88 215 170 306.5t186 91.5q74 0 119 -45.5t45 -118.5q0 -68 -42 -112t-109.5 -44 t-105.5 41t-38 107q0 37 -21 36q-49 0 -180 -307q57 -129 140 -217t174 -88q29 0 75.5 27.5t71.5 54.5l27 -31q-88 -98 -192.5 -154.5t-201.5 -56.5q-197 0 -319 164q-68 -76 -161 -120t-175 -44q-166 0 -269.5 129t-103.5 299zM451 610q0 -68 34.5 -178t101 -205.5 t136.5 -95.5q49 0 104 37q-180 270 -270 604q-106 -37 -106 -162zM819 1223q0 -37 7.5 -80t12.5 -66.5t21.5 -82t20.5 -70.5q102 31 175.5 101.5t73.5 166.5q0 74 -44 123t-117 49q-72 0 -111 -36.5t-39 -104.5z" />
<glyph unicode="'" horiz-adv-x="681" d="M332 1337q0 133 108.5 133t108.5 -133q0 -72 -10 -157l-29 -310q-8 -88 -69.5 -88t-69.5 88l-29 310q-10 85 -10 157z" />
<glyph unicode="(" horiz-adv-x="796" d="M225 4q0 399 153.5 769t434.5 683l102 -76q-283 -328 -419 -665.5t-136 -753.5q0 -238 43 -453l-129 -28q-49 229 -49 524z" />
<glyph unicode=")" horiz-adv-x="796" d="M-139 -444q283 328 419 665.5t136 753.5q0 238 -43 452l129 29q49 -229 49 -524q0 -399 -153.5 -769t-434.5 -683z" />
<glyph unicode="*" horiz-adv-x="1138" d="M311 1239q0 37 45 37q29 0 70 -12q33 55 53 55q18 0 33 -49q10 -37 58 -106.5t94 -102.5q4 20 4 59q0 102 -43 199q-12 27 -13 35q0 20 39 20q10 0 28.5 -1t20.5 -1q10 23 32 46.5t40 23.5q43 0 47 -103q74 -10 74 -41q0 -14 -31 -32q-37 -20 -90 -91t-72 -124 q31 4 66 17t65.5 31.5t53 34t43 33t22.5 17.5q8 6 19 6q27 0 39 -80q27 -2 58.5 -16.5t31.5 -37t-18.5 -35.5t-65.5 -34q2 -12 2 -35q0 -45 -23 -45q-16 0 -37 17q-33 27 -114.5 55.5t-139.5 28.5q51 -123 199 -199q14 -8 14 -21q0 -25 -65 -53q4 -20 4 -39q0 -70 -41 -69 q-16 0 -29.5 11t-50.5 50q-39 -18 -59 -18q-23 0 -23 22q0 10 4 31q20 68 21 152q0 72 -14 116q-90 -86 -119 -248q-4 -20 -23 -20q-14 0 -34.5 17.5t-28.5 29.5q-51 -23 -76 -22q-41 0 -41 36q0 25 35 80q-37 43 -37 64q0 23 47 22q51 0 131 22.5t125 55.5q-82 43 -207 43 q-16 0 -41.5 -2t-32.5 -2q-25 0 -24 25q0 35 24 69q-14 10 -31.5 36t-17.5 42z" />
<glyph unicode="+" horiz-adv-x="1228" d="M96 403v230h404v403h229v-403h404v-230h-404v-403h-229v403h-404z" />
<glyph unicode="," horiz-adv-x="626" d="M10 -305q219 119 264 293q-37 -4 -55 -4q-82 0 -133 51t-51 133q0 78 54 131t130 53q80 0 132 -54t52 -146q0 -131 -95 -262.5t-283 -225.5z" />
<glyph unicode="-" horiz-adv-x="909" d="M121 389l72 258h595l-71 -258h-596z" />
<glyph unicode="." horiz-adv-x="626" d="M35 168q0 78 54 131t130 53t130 -53t54 -131t-54 -131t-130 -53t-130 53t-54 131z" />
<glyph unicode="/" horiz-adv-x="796" d="M-193 -29l1059 1499h242l-1059 -1499h-242z" />
<glyph unicode="0" horiz-adv-x="1253" d="M117 442q0 100 23.5 222t79.5 259.5t136 249t208 184.5t280 73q176 0 289.5 -124t113.5 -335q0 -90 -15 -190.5t-48 -214t-92.5 -215t-136 -185.5t-190.5 -133t-249 -49q-180 0 -289.5 122.5t-109.5 335.5zM399 141q0 -55 32 -86.5t85 -31.5q102 0 148 151l278 963 q23 74 23 135q0 55 -32 87t-85 32q-104 0 -148 -152l-278 -963q-23 -74 -23 -135z" />
<glyph unicode="1" horiz-adv-x="1253" d="M123 0l12 39h195l327 1178l-299 -105l11 39l737 279l-381 -1391h244l-11 -39h-835z" />
<glyph unicode="2" horiz-adv-x="1253" d="M-31 0q23 90 81.5 171t134 144.5t162.5 128t169 134t148.5 148.5t107.5 185.5t41 229.5q0 104 -54 164.5t-159 60.5q-90 0 -169 -43t-114 -119l5 -8q31 37 88 37q66 0 107.5 -39t41.5 -102q0 -80 -45 -123t-119 -43q-66 0 -104.5 50t-38.5 122q0 115 78 193.5t179 108.5 t212 30q121 0 225.5 -37t176 -124t71.5 -210q0 -127 -49 -224.5t-125 -153.5t-181.5 -106.5t-204.5 -82t-210 -79.5t-182 -102v-4q156 12 682 12q55 0 76.5 11.5t35.5 46.5l33 88l41 -8l-164 -457h-977z" />
<glyph unicode="3" horiz-adv-x="1253" d="M43 246q0 74 48 122t116 48q72 0 113.5 -47t41.5 -117q0 -63 -48 -103t-113 -40q-12 0 -33 4l-4 -4q90 -74 200.5 -74t174 56t112.5 206q68 205 68 299q0 41 -13.5 68.5t-31 41t-49 20.5t-51 8t-54.5 1h-45l14 39h56q115 0 173 33t87 111q61 164 61 274q0 88 -56 137 t-155 49q-100 0 -166 -59l5 -2q70 0 116.5 -36t46.5 -114q0 -72 -43 -113.5t-112 -41.5q-72 0 -112 44t-40 115q2 109 117 186q109 73 249 73h15q82 0 161 -18.5t152.5 -55.5t119.5 -107.5t46 -163.5q0 -164 -105.5 -252t-273.5 -100l3 -4q109 -31 169 -111.5t60 -195.5 q0 -147 -89 -249.5t-217 -145.5t-278 -43q-203 0 -319.5 72.5t-116.5 189.5z" />
<glyph unicode="4" horiz-adv-x="1253" d="M27 375l6 31l966 1007h238l-231 -878h198l-41 -160h-205l-94 -336h176l-10 -39h-713l13 39h151l88 336h-542zM223 535h406l178 600l-4 4z" />
<glyph unicode="5" horiz-adv-x="1253" d="M117 250q0 82 47 128t114.5 46t112.5 -42t45 -110q0 -78 -42 -123t-111 -45q-16 0 -45 5q55 -74 163 -74q106 0 153.5 47t88.5 160q92 248 92 379q0 82 -46 126t-130 44q-141 0 -313 -138l215 787q141 -72 368 -72q199 0 388 62q-80 -193 -237 -293.5t-366 -100.5 q-143 0 -206 27l-84 -307q193 121 385 121q174 0 284.5 -103.5t110.5 -277.5q0 -231 -178 -371.5t-430 -140.5q-174 0 -276.5 74.5t-102.5 191.5z" />
<glyph unicode="6" horiz-adv-x="1253" d="M150 494q0 188 59 358t165.5 298t267.5 204t353 76q92 0 209 -21l-14 -37q-39 6 -78 6q-195 0 -303.5 -116.5t-200.5 -436.5h8q92 80 207 80q158 0 253 -109.5t95 -265.5q0 -250 -164.5 -398t-416.5 -148q-221 0 -330.5 138.5t-109.5 371.5zM444 141q0 -49 33 -83.5 t86 -34.5t85 43t57 135q123 416 122 526q0 47 -29.5 74.5t-76.5 27.5q-109 0 -156 -163q-121 -427 -121 -525z" />
<glyph unicode="7" horiz-adv-x="1253" d="M240 901l178 541l39 -12l-15 -50q178 -53 422 -53q113 0 256.5 31t257.5 84l25 -29q-158 -147 -306.5 -310t-277.5 -355.5t-129 -305.5q0 -59 52.5 -150t52.5 -140q0 -76 -45 -122t-123 -46q-90 0 -139.5 51t-49.5 133q0 258 578 911l-6 4q-217 -88 -447 -88 q-127 0 -233 29l-47 -137z" />
<glyph unicode="8" horiz-adv-x="1253" d="M117 385q0 131 87 221t218 129q-117 131 -117 303q0 186 152.5 289t347.5 103q174 0 300 -93.5t126 -259.5q0 -117 -76 -199.5t-190 -119.5q61 -66 107 -159t46 -175q0 -199 -159.5 -319.5t-366.5 -120.5q-209 0 -342 100t-133 301zM168 371q0 -125 89 -224.5t214 -99.5 q111 0 182.5 67.5t71.5 176.5q0 41 -13.5 83t-28.5 72.5t-49 71.5t-52 61l-62 62l-55 55q-133 -31 -215 -112.5t-82 -212.5zM686 1153q0 -53 27.5 -108.5t59.5 -90t83 -85t72 -74.5q106 27 179 105.5t73 186.5q0 113 -88 196t-203 83q-88 0 -145.5 -61.5t-57.5 -151.5z" />
<glyph unicode="9" horiz-adv-x="1253" d="M150 4l14 37q41 -6 78 -6q195 0 303 116.5t200 436.5h-8q-92 -80 -207 -80q-158 0 -253 109.5t-95 265.5q0 250 165 398.5t417 148.5q221 0 330.5 -138.5t109.5 -371.5q0 -188 -59.5 -358.5t-166 -298.5t-267 -203.5t-353.5 -75.5q-91 0 -208 20zM526 686 q0 -102 107 -102q109 0 155 164q121 426 121 524q0 53 -31.5 86t-74.5 33q-59 0 -93 -43t-61 -136q-123 -415 -123 -526z" />
<glyph unicode=":" horiz-adv-x="626" d="M35 168q0 78 54 131t130 53t130 -53t54 -131t-54 -131t-130 -53t-130 53t-54 131zM190 737q0 78 54.5 131.5t130.5 53.5t130 -53.5t54 -131.5t-54 -131t-130 -53t-130.5 53t-54.5 131z" />
<glyph unicode=";" horiz-adv-x="626" d="M10 -305q219 119 264 293q-8 0 -26.5 -2t-28.5 -2q-82 0 -133 51t-51 133q0 78 54 131t130 53t130 -53t54 -131q0 -72 -22.5 -138.5t-52 -111.5t-79.5 -91t-82 -68.5l-82 -55.5t-60 -39zM190 737q0 78 54.5 131.5t130.5 53.5t130 -53.5t54 -131.5t-54 -131t-130 -53 t-130.5 53t-54.5 131z" />
<glyph unicode="&#x3c;" horiz-adv-x="1228" d="M96 426v184l1037 443v-234l-717 -301l717 -301v-233z" />
<glyph unicode="=" horiz-adv-x="1228" d="M96 182v230h1037v-230h-1037zM96 625v229h1037v-229h-1037z" />
<glyph unicode="&#x3e;" horiz-adv-x="1228" d="M96 -16v233l717 301l-717 301v234l1037 -443v-184z" />
<glyph unicode="?" horiz-adv-x="1138" d="M147 168q0 78 53.5 131t131.5 53t131 -53t53 -131t-53 -131t-131 -53t-131.5 53t-53.5 131zM303 1219q0 129 106.5 190t243.5 61q164 0 286 -103t122 -265q0 -47 -8.5 -88t-19.5 -74t-38 -66l-45 -55q-18 -23 -62 -51l-68 -44q-24 -15 -83 -45t-87 -42l-99 -45 q-66 -29 -85.5 -49.5t-47.5 -81.5h-41q47 211 76.5 302t51 119.5t73.5 59.5q158 96 205.5 146.5t47.5 136.5q0 92 -60 143t-155 51q-92 0 -151 -33v-4q76 -4 123 -47t47 -121q0 -70 -46 -116.5t-122 -46.5q-72 0 -118 46t-46 122z" />
<glyph unicode="@" horiz-adv-x="1638" d="M127 680q0 346 229.5 568t554.5 222q305 0 506 -178t201 -469q0 -186 -110.5 -350t-288.5 -164q-94 0 -145.5 59.5t-49.5 98.5h-4q-14 -41 -91 -99.5t-155 -58.5q-80 0 -146.5 64.5t-66.5 206.5q0 104 43 224t142.5 219t226.5 99q59 0 97 -20.5t67 -77.5l20 63h162 l-113 -479q-12 -59 -12 -108q0 -92 57 -92q76 0 147.5 131t71.5 282q0 223 -148 362.5t-411 139.5q-94 0 -185 -37t-172 -111.5t-131 -209t-50 -308.5q0 -221 159.5 -379.5t374.5 -158.5q147 0 245.5 27.5t205.5 84.5l20 -125q-240 -135 -469 -135q-156 0 -290 47.5 t-222 122t-150.5 170t-91 189.5t-28.5 180zM766 602q0 -162 98 -162q76 0 139.5 103.5t83.5 308.5q0 72 -17 103.5t-64 31.5q-88 0 -164 -110.5t-76 -274.5z" />
<glyph unicode="A" horiz-adv-x="1478" d="M-121 0l10 39q119 0 192 75.5t189 274.5l635 1053h164l150 -1403h118l-10 -39h-649l10 39h121l-35 373h-434l-53 -88q-66 -109 -66 -164q0 -66 51.5 -93.5t116.5 -27.5l-10 -39h-500zM365 451h407l-53 579h-4z" />
<glyph unicode="B" horiz-adv-x="1478" d="M-47 0l10 39h125l377 1364h-133l10 39h698q70 0 119 -3t119 -20.5t114 -47.5t75.5 -89t31.5 -141q0 -176 -144.5 -280.5t-357.5 -108.5v-4q172 -14 279.5 -95.5t107.5 -222.5q0 -78 -30.5 -148.5t-99 -136t-202.5 -105.5t-319 -40h-780zM512 39q74 0 113 2t92 18.5 t92 49.5q68 55 113 168.5t45 254.5q0 94 -57.5 145.5t-147.5 51.5h-60zM713 768q174 0 252 80q53 55 97 168.5t44 218.5q0 94 -40 131t-120 37h-59z" />
<glyph unicode="C" horiz-adv-x="1478" d="M143 584q0 162 58.5 316.5t168 283.5t289 207.5t400.5 78.5q127 0 259 -53t157 -53q20 0 38.5 7t26.5 11.5t29 20.5l18 16l35 -10l-137 -500h-39q0 104 -13.5 185.5t-48 160t-106.5 121.5t-178 43q-113 0 -195 -63.5t-141 -214.5q-104 -260 -165.5 -517t-61.5 -364 q0 -119 72.5 -178t197.5 -59q145 0 274 76.5t224 205.5l36 -29q-119 -156 -252 -230.5t-319 -74.5q-297 0 -462 166t-165 447z" />
<glyph unicode="D" horiz-adv-x="1705" d="M-47 0l10 39h125l377 1364h-133l10 39h713q313 0 472 -130t159 -423q0 -416 -262.5 -652.5t-680.5 -236.5h-790zM512 39h125q102 0 168.5 18.5t131 72.5t118 156.5t110.5 268.5q127 367 127 621q0 106 -56 166.5t-171 60.5h-178z" />
<glyph unicode="E" horiz-adv-x="1478" d="M-47 0l10 39h125l377 1364h-133l10 39h1178l-93 -465h-38q0 244 -86 335t-291 91h-125l-174 -635h131q121 0 201.5 44t140.5 175h45l-148 -526h-47q8 41 8 86q0 80 -47 131t-147 51h-148l-190 -690h143q207 0 379 99.5t271 312.5h45l-144 -451h-1253z" />
<glyph unicode="F" d="M-47 0l10 39h125l375 1364h-131l10 39h1143l-92 -465h-39q0 244 -86 335t-291 91h-90l-174 -635h96q121 0 202 44t140 175h45l-147 -526h-48q8 41 9 86q0 96 -44 139t-165 43h-101l-188 -690h135l-10 -39h-684z" />
<glyph unicode="G" horiz-adv-x="1593" d="M143 584q0 127 39 254t116 240.5t182.5 200.5t248.5 139t303 52q102 0 186.5 -24.5t138.5 -48t85 -23.5q84 0 127 68h45l-152 -535h-45q6 55 6 109q0 170 -90 286.5t-264 116.5q-180 0 -266 -190q-104 -227 -179 -519t-75 -458q0 -109 57.5 -169t161.5 -60q182 0 256 268 l63 235h-104l10 41h609l-11 -39h-90l-96 -338q-244 -219 -614 -219q-276 0 -462 163t-186 450z" />
<glyph unicode="H" horiz-adv-x="1705" d="M-47 0l10 39h125l377 1364h-133l10 39h692l-10 -39h-137l-174 -635h413l179 635h-134l11 39h692l-10 -39h-138l-374 -1364h135l-10 -39h-684l10 39h125l188 690h-414l-190 -690h135l-10 -39h-684z" />
<glyph unicode="I" horiz-adv-x="909" d="M-25 0l11 39h125l376 1364h-133l11 39h692l-10 -39h-138l-374 -1364h135l-11 -39h-684z" />
<glyph unicode="J" horiz-adv-x="1251" d="M-86 33q0 98 53 162.5t144 64.5q84 0 134 -48t50 -136q0 -76 -52.5 -130.5t-127.5 -54.5q-59 0 -101 21l-4 -4q78 -100 197 -101q106 0 168.5 86.5t118.5 290.5l335 1219h-133l11 39h692l-10 -39h-138l-313 -1133q-68 -250 -220.5 -388t-441.5 -138q-166 0 -264 91.5 t-98 197.5z" />
<glyph unicode="K" horiz-adv-x="1705" d="M-47 0l10 39h125l377 1364h-133l10 39h678l-10 -39h-123l-176 -635h4l411 289q186 129 187 231q0 115 -135 115l12 39h622l-10 -39q-123 0 -286 -119l-461 -334l409 -911h121l-8 -39h-700l10 39h121l-306 690h-4l-186 -690h135l-10 -39h-684z" />
<glyph unicode="L" horiz-adv-x="1478" d="M-47 0l10 39h125l377 1364h-133l10 39h692l-10 -39h-137l-375 -1364h166q213 0 390 111.5t261 306.5h45l-137 -457h-1284z" />
<glyph unicode="M" horiz-adv-x="1820" d="M-88 0l14 39q100 16 162 112.5t115 292.5l264 959h-145l16 39h536l21 -957h4l537 957h551l-17 -39h-129l-377 -1364h148l-17 -39h-663l16 39h111l391 1325h-4l-766 -1364h-150l-34 1319h-4l-254 -934q-39 -139 -39 -203q0 -143 163 -143l-16 -39h-434z" />
<glyph unicode="N" horiz-adv-x="1593" d="M-88 0l10 39q59 0 104.5 29.5t78 92t51 115t43.5 144.5l225 807l-80 176h-100l10 39h528l514 -1073h4l205 759q20 72 21 134q0 66 -41 103.5t-115 37.5h-10l10 39h442l-10 -39q-102 0 -149 -56.5t-82 -170.5l-332 -1176h-219l-563 1171l-197 -706q-47 -174 -47 -268 q0 -158 178 -158l-10 -39h-469z" />
<glyph unicode="O" horiz-adv-x="1705" d="M143 584q0 162 58.5 316.5t168 283.5t285.5 207.5t392 78.5q276 0 449 -173t173 -439q0 -233 -110.5 -435t-316.5 -327t-460 -125q-270 0 -454.5 165t-184.5 448zM537 252q0 -109 57 -169t162 -60q96 0 170.5 68.5t142.5 250.5q207 557 207 860q0 102 -62.5 159.5 t-140.5 57.5q-188 0 -285 -202q-86 -184 -168.5 -495.5t-82.5 -469.5z" />
<glyph unicode="P" horiz-adv-x="1478" d="M-47 0l10 39h125l377 1364h-133l10 39h791q227 0 324 -82t97 -254q0 -180 -144 -316.5t-423 -136.5h-307l-168 -614h135l-10 -39h-684zM690 692h111q98 0 146 26.5t87 92.5q37 63 76 200.5t39 237.5q0 154 -176 154h-86z" />
<glyph unicode="Q" horiz-adv-x="1705" d="M143 584q0 162 58.5 316.5t168 283.5t285.5 207.5t392 78.5q276 0 449 -173t173 -439q0 -330 -215 -582.5t-553 -295.5q-45 -147 -45 -220q0 -147 234 -147h61l-14 -43q-184 -8 -279 -8h-117q-59 0 -103 8t-87 30.5t-65.5 70.5t-22.5 120q0 66 53 229 q-170 68 -271.5 213.5t-101.5 350.5zM537 252q0 -109 57 -169t162 -60q96 0 170.5 68.5t142.5 250.5q207 557 207 860q0 102 -62.5 159.5t-140.5 57.5q-188 0 -285 -202q-88 -182 -169.5 -493.5t-81.5 -471.5z" />
<glyph unicode="R" horiz-adv-x="1478" d="M-47 0l10 39h125l377 1364h-133l10 39h793q373 0 372 -297q0 -176 -148.5 -284.5t-391.5 -108.5l-4 -4q92 -6 164.5 -30t128 -85.5t55.5 -153.5q0 -53 -38 -184t-38 -158q0 -39 49 -39q25 0 63.5 21.5t61.5 44.5l25 -35q-154 -145 -332 -145q-117 0 -195 49t-78 166 q0 33 44.5 200.5t44.5 210.5q0 74 -37 96.5t-103 22.5h-80l-186 -690h135l-10 -39h-684zM709 768q100 0 152 13.5t95 56.5q49 49 97.5 177t48.5 236q0 82 -40 117t-126 35h-51z" />
<glyph unicode="S" d="M10 18l135 486h45q-6 -20 -6 -66q0 -178 113 -296.5t289 -118.5q125 0 232.5 71.5t107.5 196.5q0 72 -36 125t-93.5 87t-127 64.5t-139 66.5t-127 82t-93.5 121.5t-36 174.5q0 147 84 254.5t209 155.5t271 48q125 0 245.5 -35.5t163.5 -35.5q88 0 119 78h45l-135 -471 h-39q0 414 -354 413q-106 0 -191.5 -63.5t-85.5 -165.5q0 -61 35 -108.5t90 -77t122 -58t133.5 -63.5t121.5 -80t90 -121t35 -174q0 -174 -101.5 -299t-248 -181.5t-312.5 -56.5q-106 0 -259.5 51.5t-178.5 51.5q-59 0 -78 -56h-45z" />
<glyph unicode="T" d="M184 999l127 443h1256l-123 -447h-45q6 41 6 90q0 139 -65.5 228.5t-202.5 89.5l-375 -1364h129l-12 -39h-678l12 39h131l371 1364q-162 0 -292 -120t-192 -284h-47z" />
<glyph unicode="U" horiz-adv-x="1593" d="M168 330q0 63 61 299l209 774h-137l10 39h701l-11 -39h-135l-286 -1063q-18 -66 -19 -107q0 -90 73 -150t222 -60q348 0 453 374l157 572q49 172 50 278q0 156 -191 156l10 39h477l-10 -39q-160 0 -223 -219l-217 -774q-68 -240 -204 -339.5t-402 -99.5q-274 0 -431 89.5 t-157 269.5z" />
<glyph unicode="V" horiz-adv-x="1478" d="M248 1403l10 39h672l-10 -39h-127l79 -997h5l383 643q80 135 79 211q0 68 -47 105.5t-114 37.5l10 39h491l-10 -39q-137 0 -262 -205l-713 -1198h-192l-117 1403h-137z" />
<glyph unicode="W" horiz-adv-x="2048" d="M248 1403l10 39h621l-11 -39h-104l78 -952h4l252 485l-33 467h-100l10 39h610l-10 -39h-105l78 -938h4l310 604q51 98 51 176q0 72 -40 115t-114 43l10 39h498l-10 -39h-12q-55 0 -100.5 -19.5t-79 -61.5t-54 -76t-51.5 -93q-6 -14 -10 -20l-582 -1133h-186l-76 856h-4 l-432 -856h-197l-119 1403h-106z" />
<glyph unicode="X" horiz-adv-x="1593" d="M-8 0l10 39q23 2 50.5 13t51 25.5t55 38t52.5 42.5l52 48q32 30 45 44l40 42l29 30l301 307l-301 774h-117l10 39h680l-10 -39h-125l176 -455l189 199q80 88 80 145q0 111 -140 111l10 39h508l-10 -39q-88 0 -150.5 -42t-177.5 -161l-290 -299l329 -862h107l-10 -39h-670 l10 39h125l-205 545l-235 -246q-70 -72 -88.5 -103.5t-18.5 -68.5q0 -57 46 -92t112 -35l-10 -39h-510z" />
<glyph unicode="Y" horiz-adv-x="1478" d="M248 0l10 39h131l152 534l-148 830h-125l11 39h667l-10 -39h-127l135 -752l311 461q53 78 54 156q0 59 -37 97t-94 38l10 39h491l-10 -39q-100 0 -168.5 -57.5t-150.5 -180.5l-375 -553l-162 -573h133l-12 -39h-686z" />
<glyph unicode="Z" horiz-adv-x="1593" d="M61 0l986 1403h-76q-233 0 -390 -99.5t-270 -308.5h-53l145 447h1176l-987 -1403h119q465 0 702 407h47l-145 -446h-1254z" />
<glyph unicode="[" horiz-adv-x="796" d="M43 -506l539 1948h364l-31 -123h-227l-471 -1702h246l-31 -123h-389z" />
<glyph unicode="\" horiz-adv-x="796" d="M139 1470h205l436 -1499h-205z" />
<glyph unicode="]" horiz-adv-x="796" d="M-180 -506l30 123h228l471 1702h-246l31 123h389l-539 -1948h-364z" />
<glyph unicode="^" horiz-adv-x="1228" d="M154 666l358 747h205l358 -747h-225l-236 518l-237 -518h-223z" />
<glyph unicode="_" horiz-adv-x="1024" d="M0 -154h1024v-102h-1024v102z" />
<glyph unicode="`" horiz-adv-x="569" d="M119 1403q0 80 125 80q74 0 110.5 -25.5t77.5 -95.5l174 -297h-41l-391 258q-55 35 -55 80z" />
<glyph unicode="a" d="M76 377q0 227 159.5 411.5t380.5 184.5q90 0 157 -47t85 -138h4l35 127h385l-203 -716q-14 -45 -14 -76q0 -41 37 -41q23 0 48.5 24.5t92.5 112.5l31 -22q-61 -84 -100 -125t-106 -71t-155 -30q-90 0 -142 38t-73 128h-4q-88 -166 -280 -166q-164 0 -251 114t-87 292z M420 121q0 -86 84 -86q51 0 98 41t70 96q49 117 98 302t49 259q0 76 -29.5 120t-74.5 44q-49 0 -79 -39t-56 -121q-160 -491 -160 -616z" />
<glyph unicode="b" horiz-adv-x="1251" d="M104 340q0 90 52 285l211 778h-113l16 39h152q256 0 354 63l-184 -659h4q90 127 256 127q145 0 240.5 -103.5t95.5 -283.5q0 -272 -177 -443.5t-444 -171.5q-221 0 -342 97.5t-121 271.5zM412 109q0 -45 27.5 -72t68.5 -27q66 0 107.5 51.5t74.5 174.5q141 510 141 587 q0 86 -75 86q-135 0 -232 -307q-41 -127 -76.5 -286.5t-35.5 -206.5z" />
<glyph unicode="c" horiz-adv-x="1138" d="M84 414q0 66 18.5 136.5t64.5 147t113.5 137t180 99.5t250.5 39q166 0 271 -67.5t105 -174.5q0 -63 -49 -111.5t-123 -48.5q-72 0 -122 46.5t-50 117.5q0 63 43 111.5t109 56.5v4q-37 14 -104 15q-98 0 -149.5 -69t-92.5 -210q-115 -406 -119 -446q-2 -14 -2 -35 q0 -63 49 -101t148 -38q205 0 366 215l33 -19q-152 -248 -451 -248q-223 0 -356 115t-133 328z" />
<glyph unicode="d" d="M84 377q0 227 159.5 411.5t381.5 184.5q199 0 254 -180h4l164 610h-132l17 39h172q256 0 354 63l-368 -1339q-8 -27 -9 -43q0 -29 33 -29q45 0 146 133l32 -20q-145 -236 -366 -236q-74 0 -133.5 44t-67.5 118q-115 -162 -303 -162q-164 0 -251 114t-87 292zM440 121 q0 -31 22.5 -52.5t59.5 -21.5q104 0 178 139q39 72 93.5 268.5t54.5 270.5q0 78 -38 125t-81 47q-49 0 -78.5 -39t-56.5 -121q-57 -174 -107.5 -376.5t-46.5 -239.5z" />
<glyph unicode="e" horiz-adv-x="1138" d="M84 367q0 266 197.5 436t466.5 170q147 0 261.5 -66.5t114.5 -199.5q0 -158 -134 -235t-308 -77q-113 0 -195 11l-24 -84q-23 -86 -23 -154q0 -72 44 -108.5t114 -36.5q88 0 196.5 55t184.5 125l27 -27q-90 -94 -213 -149.5t-252 -55.5q-203 0 -330 98.5t-127 297.5z M498 440q37 -6 84 -6q86 0 135 101q23 41 55.5 149.5t32.5 146.5q0 102 -88 103q-82 0 -117 -125z" />
<glyph unicode="f" horiz-adv-x="796" d="M-279 -358q-1 10 -1 20q0 47 32 81q39 42 92 42q61 0 98.5 -33t37.5 -92q0 -43 -25 -78t-66 -43q8 -6 37 -6q68 0 110 74t73 274q59 389 114 688q25 131 74 314h-199l17 39h194q31 98 80 190t119 175t168 133t209 50q80 0 135 -40.5t55 -108.5q0 -61 -34.5 -99t-94 -38 t-94.5 35.5t-35 87.5q0 37 19.5 70.5t54.5 45.5q-10 8 -37 9q-127 0 -172 -338l-23 -172h218l-17 -39h-207l-35 -192.5t-38.5 -190.5t-50 -204t-64.5 -189.5t-84 -191.5t-104.5 -166t-133.5 -155q-104 -100 -231 -100q-171 1 -191 148z" />
<glyph unicode="g" horiz-adv-x="1251" d="M-76 -291q0 78 82 126t164 48v4q-150 61 -150 195q0 115 89.5 201t212.5 100v4q-129 82 -129 219q0 119 76.5 205t183 124t221.5 38q190 0 330 -86q29 59 81 97t115 38q59 0 97 -35t38 -94q0 -49 -30.5 -77t-75.5 -28q-47 0 -79 28t-32 67q0 63 45 96l-4 4 q-43 -8 -75.5 -44t-45.5 -83q84 -90 84 -205q0 -96 -48 -165.5t-126 -103.5t-156.5 -49.5t-160.5 -15.5q-74 0 -164 15q-68 14 -102 14q-70 0 -106 -23.5t-36 -58.5q0 -39 41 -54t131 -15q47 0 155.5 3t158.5 3q74 0 119.5 -5.5t105 -23.5t90.5 -65.5t31 -120.5 q0 -80 -44 -165t-124 -159t-211 -121t-285 -47q-467 0 -467 215zM84 -276q0 -80 93 -129.5t239 -49.5q174 0 320.5 77t146.5 165q0 76 -90 76h-498q-211 0 -211 -139zM516 432q0 -37 22.5 -56.5t55.5 -19.5q41 0 68.5 26t50.5 107q90 313 90 369q0 37 -22.5 56.5t-55.5 19.5 q-41 0 -67.5 -26.5t-51.5 -108.5q-90 -314 -90 -367z" />
<glyph unicode="h" d="M29 0l379 1403h-132l17 39h172q256 0 354 63l-217 -831h4q66 115 180.5 207t243.5 92q94 0 159.5 -51.5t65.5 -145.5q0 -92 -90 -348t-90 -295q0 -51 33 -51q35 0 82 51t70 94l32 -18q-51 -111 -143 -174.5t-213 -63.5q-100 0 -158.5 53.5t-58.5 157.5q0 59 90 328.5 t90 290.5q0 49 -45 49q-63 0 -179 -163t-163 -331l-96 -356h-387z" />
<glyph unicode="i" horiz-adv-x="796" d="M127 164q0 57 51 246l133 473h-127l17 39h143q254 0 373 51l-225 -801q-8 -33 -9 -49q0 -41 29 -41q57 0 141 137l35 -20q-121 -227 -342 -228q-94 0 -156.5 46.5t-62.5 146.5zM408 1257.5q0 77.5 54 131t130 53.5t130 -53.5t54 -131t-54 -131t-130 -53.5t-130 53.5 t-54 131z" />
<glyph unicode="j" horiz-adv-x="796" d="M-348 -346q0 51 34.5 92t84.5 41q55 0 91 -35t36 -100q0 -92 -74 -113q12 -6 35 -6q47 0 77.5 32t51.5 109l323 1209h-127l17 39h143q254 0 373 51l-271 -1002q-129 -477 -596 -477q-90 0 -144 41t-54 119zM408 1257.5q0 75.5 54 130t130 54.5t130 -54.5t54 -130.5 q0 -78 -54 -131t-130 -53t-130 54.5t-54 130z" />
<glyph unicode="k" horiz-adv-x="1251" d="M29 0l387 1403h-142l17 39h178q252 0 350 63l-250 -956h31q96 0 148 123l51 116q80 184 235 185q74 0 125 -47t51 -123q0 -74 -45 -118t-116 -44q-66 0 -112 40t-46 87q0 92 37 127v4q-43 -12 -110.5 -169t-119.5 -183v-4h17q156 0 216 -77t60 -237v-59q0 -76 43 -76 q25 0 59.5 51.5t47.5 83.5l35 -18q-39 -102 -121 -171t-191 -69q-229 0 -229 260v179q0 100 -62 100h-14l-143 -510h-387z" />
<glyph unicode="l" horiz-adv-x="796" d="M127 150q0 59 37 194l293 1059h-142l17 39h178q252 0 350 63l-368 -1333q-8 -33 -9 -49q0 -41 29 -41q45 0 152 145l30 -28q-152 -227 -362 -228q-205 1 -205 179z" />
<glyph unicode="m" horiz-adv-x="1933" d="M29 0l241 883h-114l16 39h135q252 0 371 51l-80 -297l4 2q66 129 165 212t228 83q209 0 209 -182q0 -18 -6 -105h4q156 287 418 287q90 0 150.5 -51.5t60.5 -139.5q0 -59 -21 -116q-158 -473 -157.5 -510t10.5 -49.5t35 -12.5q29 0 71.5 53.5t59.5 92.5l31 -21 q-113 -248 -355 -248q-92 0 -150.5 57.5t-58.5 157.5q0 82 89.5 329t89.5 284q0 51 -45 51q-63 0 -158.5 -135t-136.5 -279l-127 -436h-373l203 737q10 39 10 72q0 41 -37 41q-53 0 -145.5 -139.5t-130.5 -278.5l-119 -432h-387z" />
<glyph unicode="n" d="M29 0l241 883h-114l16 39h135q252 0 371 51l-82 -326h4q70 133 184.5 229.5t245.5 96.5q94 0 159.5 -51.5t65.5 -145.5q0 -92 -90 -348t-90 -295q0 -51 33 -51q35 0 82 51t70 94l32 -18q-51 -111 -143 -174.5t-213 -63.5q-100 0 -158.5 53.5t-58.5 157.5q0 59 90 328.5 t90 290.5q0 49 -45 49q-63 0 -179 -163t-163 -331l-96 -356h-387z" />
<glyph unicode="o" horiz-adv-x="1249" d="M84 414q0 72 20.5 145.5t67.5 148t116.5 133t176 95.5t237.5 37q219 0 351.5 -115t132.5 -328q0 -66 -18.5 -136t-64.5 -147t-114.5 -137.5t-181.5 -99.5t-252 -39q-211 0 -341 115t-130 328zM416 129q0 -119 104 -119q59 0 99 47t75 162l72 240q88 295 88 366 q0 111 -113 111h-4q-76 -2 -126 -94t-105 -312l-23 -88l-18 -74l-14 -58l-13 -48l-9 -37q-5 -20 -7 -31.5t-3 -23.5t-2 -21.5t-1 -19.5z" />
<glyph unicode="p" d="M-201 -481l17 39h118l363 1325h-127l16 39h144q254 0 372 51l-55 -199h4q135 199 330 199q154 0 238 -102.5t84 -260.5q0 -236 -164 -431t-402 -195q-197 0 -250 168h-4l-166 -594h125l-16 -39h-627zM518 209q0 -55 34 -102.5t101 -47.5q14 0 27.5 4.5t24 10.5t20.5 18 t16.5 21.5t14.5 26t13 25.5t11 28.5l8.5 27.5l8.5 27.5t6 21.5q143 500 143 547q0 80 -82 80q-45 0 -101 -52t-95 -124q-47 -82 -98.5 -257t-51.5 -255z" />
<glyph unicode="q" d="M84 367q0 229 146.5 417.5t369.5 188.5q233 0 287 -166h4l29 115h380l-370 -1364h125l-17 -39h-626l16 39h119l135 514l-4 4q-94 -92 -244 -92q-158 0 -254 110.5t-96 272.5zM440 139q0 -43 22.5 -67.5t63.5 -24.5q49 0 96.5 35t71.5 86q35 74 94.5 280.5t59.5 270.5 q0 178 -115 178q-55 0 -87 -37t-54 -115q-152 -526 -152 -606z" />
<glyph unicode="r" horiz-adv-x="1024" d="M29 0l241 883h-114l16 39h135q252 0 371 51l-55 -205h4q49 78 120.5 141.5t151.5 63.5q82 0 127 -49.5t45 -128.5q0 -88 -51 -139.5t-131 -51.5q-76 0 -119 48t-43 118q0 29 14 68l-4 4q-131 -145 -180 -328l-141 -514h-387z" />
<glyph unicode="s" horiz-adv-x="1024" d="M16 213q0 61 41 103t102.5 42t100.5 -38.5t39 -96.5q0 -55 -37 -95t-88 -40q-27 0 -41 4l-4 -4q31 -31 95.5 -54.5t142.5 -23.5q84 0 139 31t55 86q0 51 -61.5 110.5t-135 108.5t-135 128t-61.5 165q0 143 126 240.5t351 93.5q340 -6 340 -219q0 -61 -38 -97t-101 -36 q-59 0 -95 35.5t-36 101.5q0 51 32.5 86t79.5 35q25 0 35 -2v4q-68 53 -158 53t-141 -46t-51 -116q0 -53 39 -100t95 -83l113 -75q56 -39 95 -96.5t39 -126.5q0 -156 -137.5 -238t-339.5 -82q-188 0 -294 70t-106 172z" />
<glyph unicode="t" horiz-adv-x="796" d="M109 150q0 63 53 256l135 477h-143l12 39h141l80 286q266 74 430 172l-133 -458h150l-13 -39h-145l-187 -656q-20 -66 -20 -96q0 -14 9 -25.5t24 -11.5q18 0 35.5 8.5t36.5 28.5l30 32q10 11 30.5 38.5t22.5 29.5l31 -26q-4 -4 -38 -50t-67.5 -82t-104 -69t-152.5 -33 q-88 0 -152.5 46.5t-64.5 132.5z" />
<glyph unicode="u" d="M100 178q0 57 21 129l155 576h-114l16 39h135q252 0 371 51l-166 -584q-61 -217 -61 -256q0 -51 51 -51q72 0 144.5 96t103.5 205l153 539h377l-151 -533q-61 -217 -62 -256q0 -51 51 -51q29 0 75 51t67 94l32 -18q-51 -111 -143 -174.5t-213 -63.5q-104 0 -160.5 49.5 t-56.5 141.5v37h-4q-63 -98 -175 -163t-231 -65q-94 0 -154.5 57.5t-60.5 149.5z" />
<glyph unicode="v" horiz-adv-x="1251" d="M100 176q0 70 45 240l125 467h-114l16 39h135q252 0 371 51l-186 -670q-35 -125 -35 -168q0 -66 98 -65q145 0 334.5 169t189.5 308q0 41 -30.5 64.5t-68.5 33.5t-68.5 48t-30.5 106q0 72 46 118t120 46q92 0 142 -56.5t50 -148.5q0 -121 -81 -263.5t-202.5 -256 t-277.5 -190.5t-293 -77q-117 0 -201 50.5t-84 154.5z" />
<glyph unicode="w" horiz-adv-x="1820" d="M100 176q0 70 45 240l125 467h-114l16 39h135q252 0 371 51l-186 -670q-35 -125 -35 -168q0 -29 19.5 -47t45.5 -18q86 0 153.5 77.5t94.5 171.5l174 603h373l-160 -596q-43 -160 -43 -197q0 -25 15.5 -42t39.5 -17q55 0 169 73.5t212.5 189.5t98.5 214q0 41 -31 64.5 t-69 33.5t-68.5 48t-30.5 106q0 72 46 118t120 46q92 0 142 -56.5t50 -148.5q0 -125 -83 -267.5t-204.5 -255t-270 -188.5t-271.5 -76q-203 0 -221 209q-160 -209 -373 -209q-117 0 -201 50.5t-84 154.5z" />
<glyph unicode="x" d="M-10 124.5q0 63.5 45 109t108.5 45.5t108.5 -45.5t45 -108.5q0 -43 -33 -84l4 -4q113 68 166 250l96 334q27 94 27 135q0 131 -117 131q-25 0 -52.5 -12.5t-57.5 -36.5l-54 -44q-23 -19 -53 -51l-39 -38l-30 28q111 123 212 181.5t242 58.5q264 0 307 -201h5 q39 84 108.5 142.5t147.5 58.5q76 0 127 -45t51 -117q0 -63 -47 -104t-113 -41q-61 0 -104 39.5t-43 97.5q0 55 32 90l-4 4q-104 -66 -157 -250l-103 -366q-12 -41 -12 -97q0 -102 123 -102q100 0 250 149l28 -24q-127 -127 -227 -181.5t-254 -54.5q-102 0 -175 63.5 t-93 166.5h-4q-53 -115 -120 -172.5t-188 -57.5q-63 0 -108 45t-45 108.5z" />
<glyph unicode="y" horiz-adv-x="1251" d="M-10 -340q0 78 47 124t114.5 46t112.5 -40t45 -116q0 -84 -61 -123v-4q162 35 266 242l-235 905q-10 37 -16.5 53.5t-16.5 28.5t-25 12q-41 0 -131 -178l-37 13q53 137 157.5 243.5t227.5 106.5q86 0 134.5 -51.5t76.5 -184.5l96 -422h5l174 433q47 115 97 170t119.5 55 t116 -44t46.5 -122t-47.5 -122t-114.5 -44q-57 0 -103.5 33t-64.5 86h-4l-301 -740q-125 -307 -244 -416.5t-262 -109.5q-76 0 -124 48t-48 118z" />
<glyph unicode="z" horiz-adv-x="1251" d="M16 33q0 16 21.5 44.5t43.5 50.5l53 52l34 33q98 94 232.5 182t303 186.5t261.5 161.5l-4 5q-315 -125 -521 -125q-90 0 -219 14l-41 -119h-39l152 455q125 -31 373.5 -67t334.5 -36q102 0 170 103l29 -21q-74 -113 -193.5 -211t-230.5 -159l-251 -147 q-140 -85 -230 -161l4 -4q193 70 307 70q119 0 245 -55.5t167 -55.5t65.5 20.5t24.5 53.5v23h-4q-16 -27 -76 -27q-45 0 -73.5 27.5t-28.5 74.5q0 45 27.5 74t70.5 29q59 0 91 -46t32 -100q0 -158 -118 -272.5t-292 -114.5q-115 0 -232.5 35t-209.5 70t-143 35 q-25 0 -42.5 -11.5t-17.5 -27.5q0 -6 5 -21.5t5 -23.5q0 -16 -13 -29.5t-32 -13.5q-41 0 -41 49z" />
<glyph unicode="{" horiz-adv-x="796" d="M100 -324q0 51 23 129l113 410q20 74 20 121q0 94 -106 131q100 31 147 86t78 168l112 409q53 190 153.5 251t313.5 61l-10 -39q-143 -14 -203.5 -74.5t-95.5 -185.5l-106 -389q-35 -127 -89.5 -191.5t-162.5 -93.5v-4q117 -35 116 -141q0 -55 -24 -144l-107 -387 q-25 -88 -24 -123q0 -117 180 -137l-10 -39q-170 0 -244 40t-74 142z" />
<glyph unicode="|" horiz-adv-x="454" d="M186 -29v1499h205v-1499h-205z" />
<glyph unicode="}" horiz-adv-x="796" d="M-190 -506l10 39q143 14 203.5 74.5t95.5 185.5l106 389q35 127 89.5 191.5t162.5 93.5v4q-117 35 -117 141q0 55 25 144l107 387q25 88 24 123q0 117 -180 137l10 39q170 0 244 -40t74 -142q0 -51 -23 -130l-113 -409q-20 -74 -20 -121q0 -94 106 -131 q-100 -31 -147 -86t-78 -168l-113 -410q-53 -190 -153 -250.5t-313 -60.5z" />
<glyph unicode="~" horiz-adv-x="1228" d="M141 522q41 55 68 86t78 60.5t110 29.5q80 0 210 -66.5t220 -66.5q123 0 187 144l73 -197q-41 -55 -67.5 -86t-77.5 -60.5t-111 -29.5q-80 0 -209.5 66.5t-220.5 66.5q-123 0 -186 -141z" />
<glyph unicode="&#xa1;" horiz-adv-x="909" d="M2 -244q160 184 254 350t174 398h31q-49 -227 -49 -445q0 -119 30 -311q-162 -129 -278 -254q-84 184 -162 262zM340 796.5q0 75.5 53 130t131 54.5t131.5 -54.5t53.5 -130t-53.5 -130t-131.5 -54.5t-131 54.5t-53 130z" />
<glyph unicode="&#xa2;" horiz-adv-x="1253" d="M141 408q0 252 178.5 408.5t438.5 156.5h12l47 178h47l-49 -178q133 -8 231.5 -71.5t98.5 -170.5q0 -68 -50.5 -115t-122 -47t-121.5 46.5t-50 117.5q0 68 44 115t107 53v4q-43 16 -104 17q-98 0 -149.5 -69t-92.5 -210q-121 -424 -121 -485q0 -57 52.5 -90t150.5 -33 q199 0 361 211l32 -17q-72 -117 -187.5 -181t-252.5 -64q-51 0 -96 6l-60 -203h-45l60 209q-166 33 -262.5 136.5t-96.5 275.5z" />
<glyph unicode="&#xa3;" horiz-adv-x="1253" d="M-25 158q0 102 73 156.5t181 54.5q70 0 150 -25q0 190 -12 279h-244l14 63h225q-29 211 -28 287q0 211 144.5 334t363.5 123q178 0 313 -82t135 -234q0 -78 -46 -130t-120 -52q-63 0 -106 42t-43 103q0 55 38 96t97 41q61 0 104 -49q0 80 -78.5 134.5t-162.5 54.5 q-115 0 -180.5 -78t-65.5 -193q0 -199 -47 -397h283l-17 -63h-274q-45 -186 -146 -324q172 -57 308 -57q242 0 309 209l43 -13q-23 -82 -41.5 -135t-52 -119.5t-74.5 -105.5t-105.5 -66.5t-146.5 -27.5q-170 0 -356 149q-133 -133 -265 -133q-76 0 -123 42t-47 116zM14 154 q0 -49 37 -82t90.5 -33t110.5 44t80 116q-84 72 -176 71q-57 0 -99.5 -30.5t-42.5 -85.5z" />
<glyph unicode="&#xa4;" horiz-adv-x="1253" d="M139 299l115 115q-94 129 -94 292.5t92 294.5l-113 113l127 127l113 -113q133 94 297 95q162 0 293 -93l108 111l129 -127l-108 -108q94 -137 94 -299q0 -166 -94 -299l108 -109l-125 -127l-110 111q-133 -92 -295 -93q-164 0 -299 97l-113 -115zM389 706.5 q0 -118.5 84 -202.5t203 -84t203 84t84 202.5t-84 202.5t-203 84t-203 -84t-84 -202.5z" />
<glyph unicode="&#xa5;" horiz-adv-x="1253" d="M121 381l18 63h267l49 179h-267l19 63h246l-88 688h-113l10 39h610l-10 -39h-112l65 -635h4l295 435q74 109 74 153q0 47 -82 47h-25l11 39h331l-10 -39q-51 0 -90 -23.5t-57.5 -47t-63.5 -86.5l-362 -531h256l-19 -63h-266l-49 -179h266l-18 -63h-267l-96 -342h135 l-10 -39h-627l11 39h135l96 342h-266z" />
<glyph unicode="&#xa6;" horiz-adv-x="454" d="M186 -29v564h205v-564h-205zM186 907v563h205v-563h-205z" />
<glyph unicode="&#xa7;" horiz-adv-x="1251" d="M-4 -172q0 68 43 114t108 46q70 0 113 -42t43 -110q0 -70 -49 -104.5t-121 -38.5q63 -53 128 -72.5t157 -19.5q86 0 156.5 47t70.5 129q0 47 -21.5 83t-84.5 97l-207 195q-152 143 -195 217.5t-43 167.5q0 123 87 229t210 168q-47 94 -47 176q0 176 144.5 268t324.5 92 q160 0 266.5 -72.5t106.5 -217.5q0 -74 -45 -117t-112.5 -43t-108.5 43t-41 98q0 61 38.5 101.5t98.5 40.5q29 0 59 -13q-6 63 -69.5 96t-135.5 33q-92 0 -149 -49t-57 -139q0 -57 51 -125t125 -133l147 -136q74 -71 125 -154t51 -161q0 -117 -82 -219t-207 -168 q53 -88 54 -166q0 -133 -83 -231t-201 -143.5t-245 -45.5q-86 0 -174 27t-158.5 93.5t-70.5 158.5zM303 770q0 -53 84 -142t229.5 -224.5t231.5 -239.5q98 45 98 121q0 57 -107.5 169.5t-245.5 243.5t-183 201q-107 -61 -107 -129z" />
<glyph unicode="&#xa8;" horiz-adv-x="569" d="M90 1257.5q0 69.5 51.5 121t121 51.5t120.5 -51.5t51 -121t-51 -121t-120.5 -51.5t-121 51.5t-51.5 121zM565 1257.5q0 69.5 51.5 121t121 51.5t120.5 -51.5t51 -121t-51 -121t-120.5 -51.5t-121 51.5t-51.5 121z" />
<glyph unicode="&#xa9;" horiz-adv-x="1638" d="M119 721q0 311 219 530t530.5 219t530.5 -219t219 -530t-219 -530.5t-530.5 -219.5t-530.5 219.5t-219 530.5zM279 721q0 -244 173 -417t416.5 -173t416.5 173t173 417t-173 417t-416.5 173t-416.5 -173t-173 -417zM451 745q0 76 23.5 144.5t74.5 134.5t150.5 105.5 t234.5 39.5q162 0 252 -71v-172h-51q-20 80 -70.5 136t-134.5 56q-104 0 -157.5 -97t-55.5 -263v-15q0 -380 209 -381q80 0 144.5 54.5t98.5 144.5h52l-35 -184q-121 -66 -279 -66q-217 0 -336.5 111.5t-119.5 322.5z" />
<glyph unicode="&#xaa;" horiz-adv-x="888" d="M195 1065q0 139 104 252t254 113q57 0 101 -31t55 -86h4l26 100h248l-133 -446q-8 -25 -8 -39q0 -23 24 -23q23 0 93 82l16 -22q-59 -74 -105.5 -105t-128.5 -31q-115 0 -139 97q-66 -96 -186 -97q-111 0 -168 67t-57 169zM424 930q0 -49 51 -49q80 0 119 80 q29 61 59.5 171.5t30.5 153.5q0 41 -19.5 66.5t-48.5 25.5q-55 0 -88 -96q-104 -309 -104 -352z" />
<glyph unicode="&#xab;" horiz-adv-x="1138" d="M180 557l256 274h228l-275 -284l152 -342h-195zM541 528l288 303h228l-307 -317l141 -309h-199z" />
<glyph unicode="&#xac;" horiz-adv-x="1228" d="M96 625v229h1037v-629h-230v400h-807z" />
<glyph unicode="&#xad;" horiz-adv-x="909" d="M121 389l72 258h595l-71 -258h-596z" />
<glyph unicode="&#xae;" horiz-adv-x="1638" d="M119 721q0 311 219 530t530.5 219t530.5 -219t219 -530t-219 -530.5t-530.5 -219.5t-530.5 219.5t-219 530.5zM279 721q0 -244 173 -417t416.5 -173t416.5 173t173 417t-173 417t-416.5 173t-416.5 -173t-173 -417zM518 334v39q31 0 46.5 2t29.5 17.5t14 45.5v600 q0 29 -14 43.5t-29.5 16.5t-46.5 2v43h412q113 0 183.5 -54.5t70.5 -160.5q0 -164 -158 -213l117 -236q31 -61 56.5 -89t60.5 -28v-28h-185q-31 6 -51 27.5t-45 68.5l-127 260h-59v-252q-4 -45 17 -55t73 -10v-39h-365zM793 741h63q111 0 111 185q0 166 -103 166h-71v-351z " />
<glyph unicode="&#xaf;" horiz-adv-x="569" d="M70 1149l32 147h742l-31 -147h-743z" />
<glyph unicode="&#xb0;" horiz-adv-x="819" d="M242 1137q0 123 85 208t207.5 85t207.5 -85t85 -208t-85 -208t-207.5 -85t-207.5 85t-85 208zM365 1136.5q0 -71.5 49 -120.5t120.5 -49t121 49t49.5 120.5t-49.5 121t-121 49.5t-120.5 -49.5t-49 -121z" />
<glyph unicode="&#xb1;" horiz-adv-x="1228" d="M96 0v229h1037v-229h-1037zM96 553v229h404v254h229v-254h404v-229h-404v-256h-229v256h-404z" />
<glyph unicode="&#xb2;" horiz-adv-x="815" d="M57 571q18 72 83 137.5t141.5 117t151.5 107.5t124 139t49 183q0 61 -34.5 98.5t-98.5 37.5q-51 0 -100 -27t-68 -72l4 -4q16 23 51 23q43 0 73 -28t30 -73q0 -47 -31 -75.5t-78 -28.5q-49 0 -78.5 31.5t-29.5 83.5q0 78 52 128t115.5 65.5t133.5 15.5q139 0 234.5 -56.5 t95.5 -167.5q0 -90 -39 -153.5t-107.5 -100.5t-138.5 -60l-157 -51q-87 -28 -138 -57l4 -4q68 8 424 8q31 0 45 39l18 47l33 -8l-106 -295h-658z" />
<glyph unicode="&#xb3;" horiz-adv-x="815" d="M94 741q0 45 30 78t75 33q55 0 83.5 -30.5t28.5 -78.5q0 -45 -31.5 -70.5t-74.5 -25.5q-14 0 -21 2l-2 -2q12 -20 57.5 -35.5t77.5 -15.5q70 0 110 48t77 149q35 94 35 137q0 45 -28 63.5t-89 18.5h-39l10 24h37q135 0 168 97q37 111 37 157q0 51 -37 83t-96 32 q-55 0 -111 -39l2 -4q121 0 121 -107q0 -45 -32 -71q-32 -27 -76 -27q-51 0 -80 28.5t-29 78.5q0 74 74.5 120t175.5 46q139 0 228 -54.5t89 -153t-70.5 -151.5t-181.5 -59v-4q72 -16 114 -63.5t42 -108.5q0 -131 -113.5 -198t-263.5 -67q-156 0 -226.5 47t-70.5 123z" />
<glyph unicode="&#xb4;" horiz-adv-x="569" d="M365 1065l174 297q41 70 77.5 95.5t110.5 25.5q125 0 125 -80q0 -45 -55 -80l-391 -258h-41z" />
<glyph unicode="&#xb5;" d="M-86 -381q0 45 28.5 135t84 249t94.5 304l155 576h-114l16 39h135q252 0 371 51l-166 -584q-61 -217 -61 -256q0 -51 51 -51q72 0 144.5 96t103.5 205l153 539h377l-151 -533q-61 -217 -62 -256q0 -51 51 -51q29 0 75 51t67 94l32 -18q-51 -111 -143 -174.5t-213 -63.5 q-104 0 -160.5 49.5t-56.5 141.5v37l-4 4q-70 -98 -166 -165t-162 -67q-49 0 -69 19q-25 -215 -55.5 -319.5t-76 -140.5t-129.5 -36q-74 0 -111.5 36t-37.5 89z" />
<glyph unicode="&#xb6;" horiz-adv-x="1269" d="M2 -422l16 39h150l272 983q-117 8 -178 86t-61 201q0 238 126 396.5t351 158.5h737l-16 -39h-152l-493 -1786h151l-16 -39h-379l498 1800h-121l-498 -1800h-387z" />
<glyph unicode="&#xb7;" horiz-adv-x="626" d="M154 565q0 78 54 131.5t130 53.5t130 -53.5t54 -131.5t-54 -131t-130 -53t-130 53t-54 131z" />
<glyph unicode="&#xb8;" horiz-adv-x="569" d="M-45 -389l14 57q82 -35 154 -35q119 0 119 88q0 35 -22.5 57.5t-63.5 22.5q-25 0 -39 -6l-31 15l139 190h70l-115 -147l4 -5q55 16 92 17q66 0 118 -31t52 -96q0 -70 -68.5 -119t-205.5 -49q-104 0 -217 41z" />
<glyph unicode="&#xb9;" horiz-adv-x="815" d="M145 571l9 25h120l215 700l-190 -61l8 35l486 160l-250 -834h151l-6 -25h-543z" />
<glyph unicode="&#xba;" horiz-adv-x="813" d="M195 1090q0 152 107.5 246t301.5 94q139 0 223 -68t84 -193q0 -152 -107.5 -246t-301.5 -94q-139 0 -223 68t-84 193zM412 913q0 -27 19.5 -43t45.5 -16q43 0 72 45t74 186q72 211 71 258q0 27 -19.5 44.5t-45.5 17.5q-43 0 -71 -44t-75 -187q-71 -220 -71 -261z" />
<glyph unicode="&#xbb;" horiz-adv-x="1138" d="M82 205l307 317l-141 309h198l152 -323l-289 -303h-227zM475 205l275 284l-152 342h195l165 -352l-256 -274h-227z" />
<glyph unicode="&#xbc;" horiz-adv-x="1875" d="M121 571l8 25h121l215 700l-191 -61l9 35l485 160l-250 -834h152l-6 -25h-543zM457 -45l915 1503h98l-923 -1503h-90zM999 217l621 629h180l-153 -518h125l-27 -111h-131l-58 -192h109l-6 -25h-463l8 25h96l58 192h-359zM1149 328h246l104 348h-4z" />
<glyph unicode="&#xbd;" horiz-adv-x="1875" d="M121 571l8 25h121l215 700l-191 -61l9 35l485 160l-250 -834h152l-6 -25h-543zM457 -45l915 1503h98l-923 -1503h-90zM981 0q18 72 82.5 137.5t141.5 116.5t152 107.5t124 139.5t49 183q0 61 -35 98t-98 37q-51 0 -100.5 -26.5t-67.5 -71.5l4 -4q16 23 51 22 q43 0 72.5 -27.5t29.5 -72.5q0 -47 -30.5 -75.5t-77.5 -28.5q-49 0 -79 31.5t-30 82.5q0 78 52.5 128t116 65.5t132.5 15.5q139 0 234.5 -56.5t95.5 -166.5q0 -90 -39 -153.5t-107.5 -100.5t-137.5 -60l-157 -52q-87 -28 -138 -56l4 -4q68 8 424 8q31 0 45 39l18 47l33 -8 l-107 -295h-657z" />
<glyph unicode="&#xbe;" horiz-adv-x="1875" d="M94 741q0 45 30 78t75 33q55 0 83.5 -30.5t28.5 -78.5q0 -45 -31.5 -70.5t-74.5 -25.5q-14 0 -21 2l-2 -2q12 -20 57.5 -35.5t77.5 -15.5q70 0 110 48t77 149q35 94 35 137q0 45 -28 63.5t-89 18.5h-39l10 24h37q135 0 168 97q37 111 37 157q0 51 -37 83t-96 32 q-55 0 -111 -39l2 -4q121 0 121 -107q0 -45 -32 -71q-32 -27 -76 -27q-51 0 -80 28.5t-29 78.5q0 74 74.5 120t175.5 46q139 0 228 -54.5t89 -153t-70.5 -151.5t-181.5 -59v-4q72 -16 114 -63.5t42 -108.5q0 -131 -113.5 -198t-263.5 -67q-156 0 -226.5 47t-70.5 123z M481 -47l916 1507h98l-924 -1507h-90zM999 217l621 629h180l-153 -518h125l-27 -111h-131l-58 -192h109l-6 -25h-463l8 25h96l58 192h-359zM1149 328h246l104 348h-4z" />
<glyph unicode="&#xbf;" horiz-adv-x="1138" d="M37 -137q0 47 8 88t19.5 73.5t37.5 65.5l45 55q18 23 63 52l68 44q24 15 83 44.5l86 42.5l100 45q66 29 85 49t48 82h41q-47 -211 -77 -302t-51.5 -120t-72.5 -59q-158 -96 -206 -146.5t-48 -136.5q0 -92 60.5 -143.5t154.5 -51.5q92 0 152 33v4q-76 4 -123 47t-47 121 q0 70 46 117t122 47q72 0 118 -46t46 -122q0 -129 -106.5 -190.5t-244.5 -61.5q-164 0 -285.5 103.5t-121.5 265.5zM582 796.5q0 75.5 53 130t131 54.5t131 -54.5t53 -130t-53 -130t-131 -54.5t-131 54.5t-53 130z" />
<glyph unicode="&#xc0;" horiz-adv-x="1478" d="M-121 0l10 39q119 0 192 75.5t189 274.5l635 1053h164l150 -1403h118l-10 -39h-649l10 39h121l-35 373h-434l-53 -88q-66 -109 -66 -164q0 -66 51.5 -93.5t116.5 -27.5l-10 -39h-500zM365 451h407l-53 579h-4zM674 1837q0 80 125 80q74 0 110.5 -25.5t77.5 -95.5 l174 -297h-41l-391 258q-55 35 -55 80z" />
<glyph unicode="&#xc1;" horiz-adv-x="1478" d="M-121 0l10 39q119 0 192 75.5t189 274.5l635 1053h164l150 -1403h118l-10 -39h-649l10 39h121l-35 373h-434l-53 -88q-66 -109 -66 -164q0 -66 51.5 -93.5t116.5 -27.5l-10 -39h-500zM365 451h407l-53 579h-4zM920 1499l174 297q41 70 77.5 95.5t110.5 25.5 q125 0 125 -80q0 -45 -55 -80l-391 -258h-41z" />
<glyph unicode="&#xc2;" horiz-adv-x="1478" d="M-121 0l10 39q119 0 192 75.5t189 274.5l635 1053h164l150 -1403h118l-10 -39h-649l10 39h121l-35 373h-434l-53 -88q-66 -109 -66 -164q0 -66 51.5 -93.5t116.5 -27.5l-10 -39h-500zM365 451h407l-53 579h-4zM655 1499l318 418h215l135 -418h-51l-217 230l-332 -230h-68 z" />
<glyph unicode="&#xc3;" horiz-adv-x="1478" d="M-121 0l10 39q119 0 192 75.5t189 274.5l635 1053h164l150 -1403h118l-10 -39h-649l10 39h121l-35 373h-434l-53 -88q-66 -109 -66 -164q0 -66 51.5 -93.5t116.5 -27.5l-10 -39h-500zM365 451h407l-53 579h-4zM621 1577q33 115 100 196.5t172 81.5q61 0 183 -47t163 -47 q88 0 129 99h43q-33 -119 -100.5 -201t-171.5 -82q-61 0 -183 47t-163 47q-88 0 -129 -94h-43z" />
<glyph unicode="&#xc4;" horiz-adv-x="1478" d="M-121 0l10 39q119 0 192 75.5t189 274.5l635 1053h164l150 -1403h118l-10 -39h-649l10 39h121l-35 373h-434l-53 -88q-66 -109 -66 -164q0 -66 51.5 -93.5t116.5 -27.5l-10 -39h-500zM365 451h407l-53 579h-4zM645 1691.5q0 69.5 50 121t122 51.5t122 -51.5t50 -121 t-50 -120.5t-122 -51t-122 51t-50 120.5zM1120 1691.5q0 69.5 50.5 121t122 51.5t121.5 -51.5t50 -121t-50 -120.5t-121.5 -51t-122 51t-50.5 120.5z" />
<glyph unicode="&#xc5;" horiz-adv-x="1478" d="M-121 0l10 39q119 0 192 75.5t189 274.5l635 1053h164l150 -1403h118l-10 -39h-649l10 39h121l-35 373h-434l-53 -88q-66 -109 -66 -164q0 -66 51.5 -93.5t116.5 -27.5l-10 -39h-500zM365 451h407l-53 579h-4zM784 1694q0 88 61.5 149.5t149.5 61.5t149.5 -61.5 t61.5 -149.5t-61.5 -149.5t-149.5 -61.5t-149.5 61.5t-61.5 149.5zM860 1693.5q0 -55.5 40 -95t95.5 -39.5t95 39.5t39.5 95t-39.5 95.5t-95 40t-95.5 -40t-40 -95.5z" />
<glyph unicode="&#xc6;" horiz-adv-x="1820" d="M-121 0l10 39q59 4 125 75.5t189 241.5l41 58l721 989h-129l10 39h1067l-127 -465h-45q6 92 6 110q0 168 -69.5 242t-217.5 74h-69l-177 -635q143 0 215 45t132 174h43l-152 -526h-43q4 45 4 84q0 100 -42 142t-169 42l-190 -690h92q180 0 320.5 113.5t222.5 298.5h43 l-131 -451h-1070l11 39h121l104 373h-426q-143 -190 -143 -265q0 -51 46 -79.5t101 -28.5l-10 -39h-414zM330 451h405l252 901l-4 4z" />
<glyph unicode="&#xc7;" horiz-adv-x="1478" d="M143 584q0 162 58.5 316.5t168 283.5t289 207.5t400.5 78.5q127 0 259 -53t157 -53q20 0 38.5 7t26.5 11.5t29 20.5l18 16l35 -10l-137 -500h-39q0 104 -13.5 185.5t-48 160t-106.5 121.5t-178 43q-113 0 -195 -63.5t-141 -214.5q-104 -260 -165.5 -517t-61.5 -364 q0 -119 72.5 -178t197.5 -59q145 0 274 76.5t224 205.5l36 -29q-119 -156 -252 -230.5t-319 -74.5h-43l-92 -118l4 -5q55 16 92 17q66 0 118 -31t52 -96q0 -70 -68.5 -119t-205.5 -49q-104 0 -217 41l14 57q82 -35 154 -35q119 0 118 88q0 35 -22.5 57.5t-63.5 22.5 q-25 0 -39 -6l-30 15l123 167q-250 31 -385.5 192t-135.5 415z" />
<glyph unicode="&#xc8;" horiz-adv-x="1478" d="M-47 0l10 39h125l377 1364h-133l10 39h1178l-93 -465h-38q0 244 -86 335t-291 91h-125l-174 -635h131q121 0 201.5 44t140.5 175h45l-148 -526h-47q8 41 8 86q0 80 -47 131t-147 51h-148l-190 -690h143q207 0 379 99.5t271 312.5h45l-144 -451h-1253zM674 1837 q0 80 125 80q74 0 110.5 -25.5t77.5 -95.5l174 -297h-41l-391 258q-55 35 -55 80z" />
<glyph unicode="&#xc9;" horiz-adv-x="1478" d="M-47 0l10 39h125l377 1364h-133l10 39h1178l-93 -465h-38q0 244 -86 335t-291 91h-125l-174 -635h131q121 0 201.5 44t140.5 175h45l-148 -526h-47q8 41 8 86q0 80 -47 131t-147 51h-148l-190 -690h143q207 0 379 99.5t271 312.5h45l-144 -451h-1253zM920 1499l174 297 q41 70 77.5 95.5t110.5 25.5q125 0 125 -80q0 -45 -55 -80l-391 -258h-41z" />
<glyph unicode="&#xca;" horiz-adv-x="1478" d="M-47 0l10 39h125l377 1364h-133l10 39h1178l-93 -465h-38q0 244 -86 335t-291 91h-125l-174 -635h131q121 0 201.5 44t140.5 175h45l-148 -526h-47q8 41 8 86q0 80 -47 131t-147 51h-148l-190 -690h143q207 0 379 99.5t271 312.5h45l-144 -451h-1253zM655 1499l318 418 h215l135 -418h-51l-217 230l-332 -230h-68z" />
<glyph unicode="&#xcb;" horiz-adv-x="1478" d="M-47 0l10 39h125l377 1364h-133l10 39h1178l-93 -465h-38q0 244 -86 335t-291 91h-125l-174 -635h131q121 0 201.5 44t140.5 175h45l-148 -526h-47q8 41 8 86q0 80 -47 131t-147 51h-148l-190 -690h143q207 0 379 99.5t271 312.5h45l-144 -451h-1253zM645 1691.5 q0 69.5 50 121t122 51.5t122 -51.5t50 -121t-50 -120.5t-122 -51t-122 51t-50 120.5zM1120 1691.5q0 69.5 50.5 121t122 51.5t121.5 -51.5t50 -121t-50 -120.5t-121.5 -51t-122 51t-50.5 120.5z" />
<glyph unicode="&#xcc;" horiz-adv-x="909" d="M-25 0l11 39h125l376 1364h-133l11 39h692l-10 -39h-138l-374 -1364h135l-11 -39h-684zM389 1837q0 80 125 80q74 0 111 -25.5t77 -95.5l175 -297h-41l-392 258q-55 35 -55 80z" />
<glyph unicode="&#xcd;" horiz-adv-x="909" d="M-25 0l11 39h125l376 1364h-133l11 39h692l-10 -39h-138l-374 -1364h135l-11 -39h-684zM635 1499l174 297q41 70 78 95.5t110 25.5q125 0 125 -80q0 -45 -55 -80l-391 -258h-41z" />
<glyph unicode="&#xce;" horiz-adv-x="909" d="M-25 0l11 39h125l376 1364h-133l11 39h692l-10 -39h-138l-374 -1364h135l-11 -39h-684zM371 1499l317 418h215l135 -418h-51l-217 230l-332 -230h-67z" />
<glyph unicode="&#xcf;" horiz-adv-x="909" d="M-25 0l11 39h125l376 1364h-133l11 39h692l-10 -39h-138l-374 -1364h135l-11 -39h-684zM360 1691.5q0 69.5 51.5 121t121 51.5t121 -51.5t51.5 -121t-51.5 -120.5t-121 -51t-121 51t-51.5 120.5zM836 1691.5q0 69.5 51 121t120.5 51.5t121 -51.5t51.5 -121t-51.5 -120.5 t-121 -51t-120.5 51t-51 120.5z" />
<glyph unicode="&#xd0;" horiz-adv-x="1705" d="M-47 0l10 39h125l191 690h-129l20 76h129l166 598h-133l10 39h713q313 0 472 -130t159 -423q0 -416 -262.5 -652.5t-680.5 -236.5h-790zM512 39h125q102 0 168.5 18.5t131 72.5t118 156.5t110.5 268.5q127 367 127 621q0 106 -56 166.5t-171 60.5h-178l-164 -598h264 l-20 -76h-265z" />
<glyph unicode="&#xd1;" horiz-adv-x="1593" d="M-88 0l10 39q59 0 104.5 29.5t78 92t51 115t43.5 144.5l225 807l-80 176h-100l10 39h528l514 -1073h4l205 759q20 72 21 134q0 66 -41 103.5t-115 37.5h-10l10 39h442l-10 -39q-102 0 -149 -56.5t-82 -170.5l-332 -1176h-219l-563 1171l-197 -706q-47 -174 -47 -268 q0 -158 178 -158l-10 -39h-469zM678 1577q33 115 100.5 196.5t171.5 81.5q61 0 183 -47t163 -47q88 0 129 99h43q-33 -119 -100.5 -201t-171.5 -82q-61 0 -183 47t-163 47q-88 0 -129 -94h-43z" />
<glyph unicode="&#xd2;" horiz-adv-x="1705" d="M143 584q0 162 58.5 316.5t168 283.5t285.5 207.5t392 78.5q276 0 449 -173t173 -439q0 -233 -110.5 -435t-316.5 -327t-460 -125q-270 0 -454.5 165t-184.5 448zM537 252q0 -109 57 -169t162 -60q96 0 170.5 68.5t142.5 250.5q207 557 207 860q0 102 -62.5 159.5 t-140.5 57.5q-188 0 -285 -202q-86 -184 -168.5 -495.5t-82.5 -469.5zM788 1837q0 80 125 80q74 0 111 -25.5t78 -95.5l174 -297h-41l-391 258q-56 35 -56 80z" />
<glyph unicode="&#xd3;" horiz-adv-x="1705" d="M143 584q0 162 58.5 316.5t168 283.5t285.5 207.5t392 78.5q276 0 449 -173t173 -439q0 -233 -110.5 -435t-316.5 -327t-460 -125q-270 0 -454.5 165t-184.5 448zM537 252q0 -109 57 -169t162 -60q96 0 170.5 68.5t142.5 250.5q207 557 207 860q0 102 -62.5 159.5 t-140.5 57.5q-188 0 -285 -202q-86 -184 -168.5 -495.5t-82.5 -469.5zM1034 1499l174 297q41 70 78 95.5t111 25.5q125 0 125 -80q0 -45 -56 -80l-391 -258h-41z" />
<glyph unicode="&#xd4;" horiz-adv-x="1705" d="M143 584q0 162 58.5 316.5t168 283.5t285.5 207.5t392 78.5q276 0 449 -173t173 -439q0 -233 -110.5 -435t-316.5 -327t-460 -125q-270 0 -454.5 165t-184.5 448zM537 252q0 -109 57 -169t162 -60q96 0 170.5 68.5t142.5 250.5q207 557 207 860q0 102 -62.5 159.5 t-140.5 57.5q-188 0 -285 -202q-86 -184 -168.5 -495.5t-82.5 -469.5zM770 1499l317 418h216l135 -418h-52l-217 230l-331 -230h-68z" />
<glyph unicode="&#xd5;" horiz-adv-x="1705" d="M143 584q0 162 58.5 316.5t168 283.5t285.5 207.5t392 78.5q276 0 449 -173t173 -439q0 -233 -110.5 -435t-316.5 -327t-460 -125q-270 0 -454.5 165t-184.5 448zM537 252q0 -109 57 -169t162 -60q96 0 170.5 68.5t142.5 250.5q207 557 207 860q0 102 -62.5 159.5 t-140.5 57.5q-188 0 -285 -202q-86 -184 -168.5 -495.5t-82.5 -469.5zM735 1577q33 115 100.5 196.5t172.5 81.5q61 0 183 -47t163 -47q88 0 129 99h43q-33 -119 -100.5 -201t-172.5 -82q-61 0 -183 47t-163 47q-88 0 -129 -94h-43z" />
<glyph unicode="&#xd6;" horiz-adv-x="1705" d="M143 584q0 162 58.5 316.5t168 283.5t285.5 207.5t392 78.5q276 0 449 -173t173 -439q0 -233 -110.5 -435t-316.5 -327t-460 -125q-270 0 -454.5 165t-184.5 448zM537 252q0 -109 57 -169t162 -60q96 0 170.5 68.5t142.5 250.5q207 557 207 860q0 102 -62.5 159.5 t-140.5 57.5q-188 0 -285 -202q-86 -184 -168.5 -495.5t-82.5 -469.5zM760 1691.5q0 69.5 50 121t122 51.5t122 -51.5t50 -121t-50 -120.5t-122 -51t-122 51t-50 120.5zM1235 1691.5q0 69.5 50 121t122 51.5t122 -51.5t50 -121t-50 -120.5t-122 -51t-122 51t-50 120.5z" />
<glyph unicode="&#xd7;" horiz-adv-x="1228" d="M133 195l324 323l-324 324l158 157l323 -323l324 323l158 -157l-326 -324l326 -323l-158 -158l-324 325l-323 -325z" />
<glyph unicode="&#xd8;" horiz-adv-x="1705" d="M86 27l188 168q-131 158 -131 389q0 162 58.5 316.5t168 283.5t285.5 207.5t392 78.5q276 0 450 -174l186 166l43 -47l-186 -166q129 -164 129 -391q0 -233 -110.5 -435t-316.5 -327t-460 -125q-291 0 -465 179l-188 -170zM537 252q0 -109 57 -169t162 -60 q96 0 170.5 68.5t142.5 250.5q143 385 184 645l-4 4l-706 -639q-6 -57 -6 -100zM561 457l4 -4l703 637q8 51 8 112q0 102 -62.5 159.5t-140.5 57.5q-188 0 -285 -202q-66 -137 -132 -360.5t-95 -399.5z" />
<glyph unicode="&#xd9;" horiz-adv-x="1593" d="M168 330q0 63 61 299l209 774h-137l10 39h701l-11 -39h-135l-286 -1063q-18 -66 -19 -107q0 -90 73 -150t222 -60q348 0 453 374l157 572q49 172 50 278q0 156 -191 156l10 39h477l-10 -39q-160 0 -223 -219l-217 -774q-68 -240 -204 -339.5t-402 -99.5q-274 0 -431 89.5 t-157 269.5zM731 1837q0 80 125 80q74 0 111 -25.5t77 -95.5l175 -297h-41l-392 258q-55 35 -55 80z" />
<glyph unicode="&#xda;" horiz-adv-x="1593" d="M168 330q0 63 61 299l209 774h-137l10 39h701l-11 -39h-135l-286 -1063q-18 -66 -19 -107q0 -90 73 -150t222 -60q348 0 453 374l157 572q49 172 50 278q0 156 -191 156l10 39h477l-10 -39q-160 0 -223 -219l-217 -774q-68 -240 -204 -339.5t-402 -99.5q-274 0 -431 89.5 t-157 269.5zM977 1499l174 297q41 70 78 95.5t110 25.5q125 0 125 -80q0 -45 -55 -80l-391 -258h-41z" />
<glyph unicode="&#xdb;" horiz-adv-x="1593" d="M168 330q0 63 61 299l209 774h-137l10 39h701l-11 -39h-135l-286 -1063q-18 -66 -19 -107q0 -90 73 -150t222 -60q348 0 453 374l157 572q49 172 50 278q0 156 -191 156l10 39h477l-10 -39q-160 0 -223 -219l-217 -774q-68 -240 -204 -339.5t-402 -99.5q-274 0 -431 89.5 t-157 269.5zM713 1499l317 418h215l135 -418h-51l-217 230l-332 -230h-67z" />
<glyph unicode="&#xdc;" horiz-adv-x="1593" d="M168 330q0 63 61 299l209 774h-137l10 39h701l-11 -39h-135l-286 -1063q-18 -66 -19 -107q0 -90 73 -150t222 -60q348 0 453 374l157 572q49 172 50 278q0 156 -191 156l10 39h477l-10 -39q-160 0 -223 -219l-217 -774q-68 -240 -204 -339.5t-402 -99.5q-274 0 -431 89.5 t-157 269.5zM702 1691.5q0 69.5 50.5 121t122 51.5t122 -51.5t50.5 -121t-50.5 -120.5t-122 -51t-122 51t-50.5 120.5zM1178 1691.5q0 69.5 50 121t121.5 51.5t122 -51.5t50.5 -121t-50.5 -120.5t-122 -51t-121.5 51t-50 120.5z" />
<glyph unicode="&#xdd;" horiz-adv-x="1478" d="M248 0l10 39h131l152 534l-148 830h-125l11 39h667l-10 -39h-127l135 -752l311 461q53 78 54 156q0 59 -37 97t-94 38l10 39h491l-10 -39q-100 0 -168.5 -57.5t-150.5 -180.5l-375 -553l-162 -573h133l-12 -39h-686zM1024 1499l174 297q41 70 78 95.5t110 25.5 q125 0 125 -80q0 -45 -55 -80l-391 -258h-41z" />
<glyph unicode="&#xde;" horiz-adv-x="1478" d="M-47 0l10 39h125l377 1364h-133l10 39h692l-10 -39h-137l-66 -232h236q422 0 422 -335q0 -72 -31 -147t-91.5 -145.5t-171 -115.5t-251.5 -45h-328l-94 -344h135l-10 -39h-684zM614 422h111q98 0 146.5 26.5t86.5 92.5q37 63 76 200.5t39 237.5q0 154 -176 154h-86z" />
<glyph unicode="&#xdf;" horiz-adv-x="1251" d="M-342 -358q-1 10 -1 20q0 47 32 81q39 42 92 42q61 0 98 -33t37 -92q0 -43 -24.5 -78t-65.5 -43q10 -6 37 -6q68 0 109.5 74t72.5 274q59 389 115 688q27 147 62.5 267t99 243t145.5 205t207 134t280 52q354 0 355 -233q0 -94 -90.5 -175t-268.5 -169q-100 -49 -100 -76 q0 -14 34 -40l81 -60q47 -35 94 -78t80.5 -108.5t33.5 -137.5q0 -168 -125.5 -295t-289.5 -127q-100 0 -165 57.5t-65 159.5q0 61 38 101.5t93 40.5q57 0 92 -37t35 -92.5t-39.5 -90t-89.5 -38.5q-23 0 -22 -21q0 -12 32.5 -26.5t69.5 -14.5q86 0 146.5 50.5t60.5 136.5 q0 59 -31.5 105t-77.5 76l-93 59q-46 30 -77.5 73t-31.5 96t44 107.5t107.5 107.5t127 114.5t107.5 154t44 202.5q0 59 -27.5 99.5t-85.5 40.5q-66 0 -118 -40t-91 -119t-63.5 -156t-52.5 -191q-104 -432 -146 -555q-137 -412 -310 -644.5t-321 -232.5q-170 1 -190 148z" />
<glyph unicode="&#xe0;" d="M76 377q0 227 159.5 411.5t380.5 184.5q90 0 157 -47t85 -138h4l35 127h385l-203 -716q-14 -45 -14 -76q0 -41 37 -41q23 0 48.5 24.5t92.5 112.5l31 -22q-61 -84 -100 -125t-106 -71t-155 -30q-90 0 -142 38t-73 128h-4q-88 -166 -280 -166q-164 0 -251 114t-87 292z M420 121q0 -86 84 -86q51 0 98 41t70 96q49 117 98 302t49 259q0 76 -29.5 120t-74.5 44q-49 0 -79 -39t-56 -121q-160 -491 -160 -616zM518 1403q0 80 125 80q74 0 111 -25q38 -26 78 -96l174 -297h-41l-392 258q-55 35 -55 80z" />
<glyph unicode="&#xe1;" d="M76 377q0 227 159.5 411.5t380.5 184.5q90 0 157 -47t85 -138h4l35 127h385l-203 -716q-14 -45 -14 -76q0 -41 37 -41q23 0 48.5 24.5t92.5 112.5l31 -22q-61 -84 -100 -125t-106 -71t-155 -30q-90 0 -142 38t-73 128h-4q-88 -166 -280 -166q-164 0 -251 114t-87 292z M420 121q0 -86 84 -86q51 0 98 41t70 96q49 117 98 302t49 259q0 76 -29.5 120t-74.5 44q-49 0 -79 -39t-56 -121q-160 -491 -160 -616zM764 1065l174 297q41 70 78 95.5t110 25.5q125 0 125 -80q0 -45 -55 -80l-391 -258h-41z" />
<glyph unicode="&#xe2;" d="M76 377q0 227 159.5 411.5t380.5 184.5q90 0 157 -47t85 -138h4l35 127h385l-203 -716q-14 -45 -14 -76q0 -41 37 -41q23 0 48.5 24.5t92.5 112.5l31 -22q-61 -84 -100 -125t-106 -71t-155 -30q-90 0 -142 38t-73 128h-4q-88 -166 -280 -166q-164 0 -251 114t-87 292z M420 121q0 -86 84 -86q51 0 98 41t70 96q49 117 98 302t49 259q0 76 -29.5 120t-74.5 44q-49 0 -79 -39t-56 -121q-160 -491 -160 -616zM500 1065l317 418h215l135 -418h-51l-217 229l-332 -229h-67z" />
<glyph unicode="&#xe3;" d="M76 377q0 227 159.5 411.5t380.5 184.5q90 0 157 -47t85 -138h4l35 127h385l-203 -716q-14 -45 -14 -76q0 -41 37 -41q23 0 48.5 24.5t92.5 112.5l31 -22q-61 -84 -100 -125t-106 -71t-155 -30q-90 0 -142 38t-73 128h-4q-88 -166 -280 -166q-164 0 -251 114t-87 292z M420 121q0 -86 84 -86q51 0 98 41t70 96q49 117 98 302t49 259q0 76 -29.5 120t-74.5 44q-49 0 -79 -39t-56 -121q-160 -491 -160 -616zM465 1143q33 115 100.5 196.5t171.5 81.5q61 0 183 -47t163 -47q88 0 129 98h43q-33 -119 -100 -200.5t-172 -81.5q-61 0 -183 47 t-163 47q-88 0 -129 -94h-43z" />
<glyph unicode="&#xe4;" d="M76 377q0 227 159.5 411.5t380.5 184.5q90 0 157 -47t85 -138h4l35 127h385l-203 -716q-14 -45 -14 -76q0 -41 37 -41q23 0 48.5 24.5t92.5 112.5l31 -22q-61 -84 -100 -125t-106 -71t-155 -30q-90 0 -142 38t-73 128h-4q-88 -166 -280 -166q-164 0 -251 114t-87 292z M420 121q0 -86 84 -86q51 0 98 41t70 96q49 117 98 302t49 259q0 76 -29.5 120t-74.5 44q-49 0 -79 -39t-56 -121q-160 -491 -160 -616zM440 1257.5q0 69.5 50.5 121t122 51.5t121.5 -51.5t50 -121t-50 -121t-121.5 -51.5t-122 51.5t-50.5 121zM915 1257.5q0 69.5 50.5 121 t122 51.5t122 -51.5t50.5 -121t-50.5 -121t-122 -51.5t-122 51.5t-50.5 121z" />
<glyph unicode="&#xe5;" d="M76 377q0 227 159.5 411.5t380.5 184.5q90 0 157 -47t85 -138h4l35 127h385l-203 -716q-14 -45 -14 -76q0 -41 37 -41q23 0 48.5 24.5t92.5 112.5l31 -22q-61 -84 -100 -125t-106 -71t-155 -30q-90 0 -142 38t-73 128h-4q-88 -166 -280 -166q-164 0 -251 114t-87 292z M420 121q0 -86 84 -86q51 0 98 41t70 96q49 117 98 302t49 259q0 76 -29.5 120t-74.5 44q-49 0 -79 -39t-56 -121q-160 -491 -160 -616zM647 1276q0 88 61.5 149.5t149.5 61.5t149.5 -61.5t61.5 -149.5t-61.5 -149.5t-149.5 -61.5t-149.5 61.5t-61.5 149.5zM723 1276 q0 -55 40 -95t95 -40t95 40t40 95t-40 95t-95 40t-95 -40t-40 -95z" />
<glyph unicode="&#xe6;" horiz-adv-x="1705" d="M29 227q0 66 24.5 116t70.5 81t96 51.5t120 28.5t121 11t117 3h129q4 10 16 49t17 56.5l13.5 49.5t11.5 58.5t3 52.5q0 150 -215 150q-115 0 -203 -51v-4q166 0 166 -138q0 -61 -46 -97t-108 -36q-66 0 -109.5 38t-43.5 97.5t36 105.5t93 72.5t119.5 39t126.5 12.5 q233 0 387 -96q160 96 348 96q186 0 287.5 -82t101.5 -178q0 -131 -127 -197.5t-438 -66.5h-68l-31 -105q-41 -137 -40 -190q0 -61 49 -96t112 -35q195 0 400 180l26 -29q-119 -109 -237.5 -156t-278.5 -47q-233 0 -362 168q-168 -168 -359 -168q-129 0 -227 66.5t-98 189.5 zM360 143q0 -41 20.5 -68.5t61.5 -27.5q119 0 248 125q-31 66 -31 135.5t37 171.5h-88q-88 0 -123.5 -30.5t-72.5 -108.5q-52 -119 -52 -197zM1087 487q98 4 148.5 20.5t73.5 57.5q33 59 56.5 148.5t23.5 142.5q0 33 -23 55.5t-57 22.5q-90 0 -121 -100z" />
<glyph unicode="&#xe7;" horiz-adv-x="1138" d="M84 414q0 66 18.5 136.5t64.5 147t113.5 137t180 99.5t250.5 39q166 0 271 -67.5t105 -174.5q0 -63 -49 -111.5t-123 -48.5q-72 0 -122 46.5t-50 117.5q0 63 43 111.5t109 56.5v4q-37 14 -104 15q-98 0 -149.5 -69t-92.5 -210q-115 -406 -119 -446q-2 -14 -2 -35 q0 -63 49 -101t148 -38q205 0 366 215l33 -19q-74 -119 -189 -184q-112 -64 -253 -64h-9h-16l-92 -118l4 -5q55 16 92 17q66 0 118 -31t52 -96q0 -70 -68.5 -119t-205.5 -49q-104 0 -217 41l14 57q82 -35 154 -35q119 0 118 88q0 35 -22.5 57.5t-63.5 22.5q-23 0 -39 -6 l-30 15l121 165q-188 20 -298 133t-110 306z" />
<glyph unicode="&#xe8;" horiz-adv-x="1138" d="M84 367q0 266 197.5 436t466.5 170q147 0 261.5 -66.5t114.5 -199.5q0 -158 -134 -235t-308 -77q-113 0 -195 11l-24 -84q-23 -86 -23 -154q0 -72 44 -108.5t114 -36.5q88 0 196.5 55t184.5 125l27 -27q-90 -94 -213 -149.5t-252 -55.5q-203 0 -330 98.5t-127 297.5z M403 1403q0 80 125 80q74 0 111 -25.5t78 -95.5l174 -297h-41l-391 258q-56 35 -56 80zM498 440q37 -6 84 -6q86 0 135 101q23 41 55.5 149.5t32.5 146.5q0 102 -88 103q-82 0 -117 -125z" />
<glyph unicode="&#xe9;" horiz-adv-x="1138" d="M84 367q0 266 197.5 436t466.5 170q147 0 261.5 -66.5t114.5 -199.5q0 -158 -134 -235t-308 -77q-113 0 -195 11l-24 -84q-23 -86 -23 -154q0 -72 44 -108.5t114 -36.5q88 0 196.5 55t184.5 125l27 -27q-90 -94 -213 -149.5t-252 -55.5q-203 0 -330 98.5t-127 297.5z M498 440q37 -6 84 -6q86 0 135 101q23 41 55.5 149.5t32.5 146.5q0 102 -88 103q-82 0 -117 -125zM649 1065l174 297q41 70 78 95.5t111 25.5q125 0 125 -80q0 -45 -56 -80l-391 -258h-41z" />
<glyph unicode="&#xea;" horiz-adv-x="1138" d="M84 367q0 266 197.5 436t466.5 170q147 0 261.5 -66.5t114.5 -199.5q0 -158 -134 -235t-308 -77q-113 0 -195 11l-24 -84q-23 -86 -23 -154q0 -72 44 -108.5t114 -36.5q88 0 196.5 55t184.5 125l27 -27q-90 -94 -213 -149.5t-252 -55.5q-203 0 -330 98.5t-127 297.5z M385 1065l317 418h216l135 -418h-52l-217 229l-331 -229h-68zM498 440q37 -6 84 -6q86 0 135 101q23 41 55.5 149.5t32.5 146.5q0 102 -88 103q-82 0 -117 -125z" />
<glyph unicode="&#xeb;" horiz-adv-x="1138" d="M84 367q0 266 197.5 436t466.5 170q147 0 261.5 -66.5t114.5 -199.5q0 -158 -134 -235t-308 -77q-113 0 -195 11l-24 -84q-23 -86 -23 -154q0 -72 44 -108.5t114 -36.5q88 0 196.5 55t184.5 125l27 -27q-90 -94 -213 -149.5t-252 -55.5q-203 0 -330 98.5t-127 297.5z M375 1257.5q0 69.5 50 121t122 51.5t122 -51.5t50 -121t-50 -121t-122 -51.5t-122 51.5t-50 121zM498 440q37 -6 84 -6q86 0 135 101q23 41 55.5 149.5t32.5 146.5q0 102 -88 103q-82 0 -117 -125zM850 1257.5q0 69.5 50 121t122 51.5t122 -51.5t50 -121t-50 -121 t-122 -51.5t-122 51.5t-50 121z" />
<glyph unicode="&#xec;" horiz-adv-x="796" d="M127 164q0 57 51 246l133 473h-127l17 39h143q254 0 373 51l-225 -801q-8 -33 -9 -49q0 -41 29 -41q57 0 141 137l35 -20q-121 -227 -342 -228q-94 0 -156.5 46.5t-62.5 146.5zM233 1403q0 80 125 80q74 0 111 -25.5t78 -95.5l174 -297h-41l-391 258q-56 35 -56 80z" />
<glyph unicode="&#xed;" horiz-adv-x="796" d="M127 164q0 57 51 246l133 473h-127l17 39h143q254 0 373 51l-225 -801q-8 -33 -9 -49q0 -41 29 -41q57 0 141 137l35 -20q-121 -227 -342 -228q-94 0 -156.5 46.5t-62.5 146.5zM479 1065l174 297q41 70 78 95.5t111 25.5q125 0 125 -80q0 -45 -56 -80l-391 -258h-41z" />
<glyph unicode="&#xee;" horiz-adv-x="796" d="M127 164q0 57 51 246l133 473h-127l17 39h143q254 0 373 51l-225 -801q-8 -33 -9 -49q0 -41 29 -41q57 0 141 137l35 -20q-121 -227 -342 -228q-94 0 -156.5 46.5t-62.5 146.5zM215 1065l317 418h216l135 -418h-52l-217 229l-331 -229h-68z" />
<glyph unicode="&#xef;" horiz-adv-x="796" d="M127 164q0 57 51 246l133 473h-127l17 39h143q254 0 373 51l-225 -801q-8 -33 -9 -49q0 -41 29 -41q57 0 141 137l35 -20q-121 -227 -342 -228q-94 0 -156.5 46.5t-62.5 146.5zM205 1257.5q0 69.5 51 121t120.5 51.5t121 -51.5t51.5 -121t-51.5 -121t-121 -51.5 t-120.5 51.5t-51 121zM680 1257.5q0 69.5 51 121t121 51.5t121 -51.5t51 -121t-51 -121t-121 -51.5t-121 51.5t-51 121z" />
<glyph unicode="&#xf0;" horiz-adv-x="1249" d="M84 414q0 240 158.5 385t431.5 145q119 0 176 -43l4 4q-2 174 -106 324l-277 -119l-49 59l276 119q-98 109 -223 142l19 40q193 -23 344 -124l247 106l50 -59l-217 -93q297 -225 296 -579q0 -328 -166.5 -539t-484.5 -211q-217 0 -348 115t-131 328zM416 109 q0 -45 30.5 -72t75.5 -27q59 0 92 38t66 149q166 547 166 610q0 45 -31 71.5t-76 26.5q-59 0 -92 -38t-65 -148q-166 -547 -166 -610z" />
<glyph unicode="&#xf1;" d="M29 0l241 883h-114l16 39h135q252 0 371 51l-82 -326h4q70 133 184.5 229.5t245.5 96.5q94 0 159.5 -51.5t65.5 -145.5q0 -92 -90 -348t-90 -295q0 -51 33 -51q35 0 82 51t70 94l32 -18q-51 -111 -143 -174.5t-213 -63.5q-100 0 -158.5 53.5t-58.5 157.5q0 59 90 328.5 t90 290.5q0 49 -45 49q-63 0 -179 -163t-163 -331l-96 -356h-387zM465 1143q33 115 100.5 196.5t171.5 81.5q61 0 183 -47t163 -47q88 0 129 98h43q-33 -119 -100.5 -200.5t-171.5 -81.5q-61 0 -183 47t-163 47q-88 0 -129 -94h-43z" />
<glyph unicode="&#xf2;" horiz-adv-x="1249" d="M84 414q0 72 20.5 145.5t67.5 148t116.5 133t176 95.5t237.5 37q219 0 351.5 -115t132.5 -328q0 -66 -18.5 -136t-64.5 -147t-114.5 -137.5t-181.5 -99.5t-252 -39q-211 0 -341 115t-130 328zM416 129q0 -119 104 -119q59 0 99 47t75 162l72 240q88 295 88 366 q0 111 -113 111h-4q-76 -2 -126 -94t-105 -312l-23 -88l-18 -74l-14 -58l-13 -48l-9 -37q-5 -20 -7 -31.5t-3 -23.5t-2 -21.5t-1 -19.5zM459 1403q0 80 125 80q74 0 110.5 -25.5t77.5 -95.5l174 -297h-41l-391 258q-55 35 -55 80z" />
<glyph unicode="&#xf3;" horiz-adv-x="1249" d="M84 414q0 72 20.5 145.5t67.5 148t116.5 133t176 95.5t237.5 37q219 0 351.5 -115t132.5 -328q0 -66 -18.5 -136t-64.5 -147t-114.5 -137.5t-181.5 -99.5t-252 -39q-211 0 -341 115t-130 328zM416 129q0 -119 104 -119q59 0 99 47t75 162l72 240q88 295 88 366 q0 111 -113 111h-4q-76 -2 -126 -94t-105 -312l-23 -88l-18 -74l-14 -58l-13 -48l-9 -37q-5 -20 -7 -31.5t-3 -23.5t-2 -21.5t-1 -19.5zM705 1065l174 297q41 70 77.5 95.5t110.5 25.5q125 0 125 -80q0 -45 -55 -80l-392 -258h-40z" />
<glyph unicode="&#xf4;" horiz-adv-x="1249" d="M84 414q0 72 20.5 145.5t67.5 148t116.5 133t176 95.5t237.5 37q219 0 351.5 -115t132.5 -328q0 -66 -18.5 -136t-64.5 -147t-114.5 -137.5t-181.5 -99.5t-252 -39q-211 0 -341 115t-130 328zM416 129q0 -119 104 -119q59 0 99 47t75 162l72 240q88 295 88 366 q0 111 -113 111h-4q-76 -2 -126 -94t-105 -312l-23 -88l-18 -74l-14 -58l-13 -48l-9 -37q-5 -20 -7 -31.5t-3 -23.5t-2 -21.5t-1 -19.5zM440 1065l318 418h215l135 -418h-51l-217 229l-332 -229h-68z" />
<glyph unicode="&#xf5;" horiz-adv-x="1249" d="M84 414q0 72 20.5 145.5t67.5 148t116.5 133t176 95.5t237.5 37q219 0 351.5 -115t132.5 -328q0 -66 -18.5 -136t-64.5 -147t-114.5 -137.5t-181.5 -99.5t-252 -39q-211 0 -341 115t-130 328zM406 1143q33 115 100 196.5t172 81.5q61 0 183 -47t163 -47q88 0 129 98h43 q-33 -119 -100.5 -200.5t-171.5 -81.5q-61 0 -183.5 47t-162.5 47q-88 0 -129 -94h-43zM416 129q0 -119 104 -119q59 0 99 47t75 162l72 240q88 295 88 366q0 111 -113 111h-4q-76 -2 -126 -94t-105 -312l-23 -88l-18 -74l-14 -58l-13 -48l-9 -37q-5 -20 -7 -31.5t-3 -23.5 t-2 -21.5t-1 -19.5z" />
<glyph unicode="&#xf6;" horiz-adv-x="1249" d="M84 414q0 72 20.5 145.5t67.5 148t116.5 133t176 95.5t237.5 37q219 0 351.5 -115t132.5 -328q0 -66 -18.5 -136t-64.5 -147t-114.5 -137.5t-181.5 -99.5t-252 -39q-211 0 -341 115t-130 328zM381 1257.5q0 69.5 51 121t121 51.5t121 -51.5t51 -121t-51 -121t-121 -51.5 t-121 51.5t-51 121zM416 129q0 -119 104 -119q59 0 99 47t75 162l72 240q88 295 88 366q0 111 -113 111h-4q-76 -2 -126 -94t-105 -312l-23 -88l-18 -74l-14 -58l-13 -48l-9 -37q-5 -20 -7 -31.5t-3 -23.5t-2 -21.5t-1 -19.5zM856 1257.5q0 69.5 51 121t121 51.5t121 -51.5 t51 -121t-51 -121t-121 -51.5t-121 51.5t-51 121z" />
<glyph unicode="&#xf7;" horiz-adv-x="1228" d="M96 403v230h1037v-230h-1037zM430 90q0 78 53.5 131t131 53t131 -53t53.5 -131t-53.5 -131t-131 -53t-131 53t-53.5 131zM430 946q0 78 53.5 131t131 53t131 -53t53.5 -131t-53.5 -131t-131 -53t-131 53t-53.5 131z" />
<glyph unicode="&#xf8;" horiz-adv-x="1249" d="M84 414q0 72 20.5 145.5t67.5 148t116.5 133t176 95.5t237.5 37q158 0 269 -62l102 121l43 -37l-96 -112q166 -117 166 -353q0 -66 -18.5 -136t-64.5 -147t-114.5 -137.5t-181.5 -99.5t-252 -39q-150 0 -256 58l-102 -121l-43 37l94 114q-164 117 -164 355zM416 129 q0 -119 104 -119q59 0 99 47t75 162l72 240l49 178h-4l-391 -463q-4 -29 -4 -45zM446 293h5l395 471q8 41 8 61q0 111 -113 111h-4q-76 -2 -126 -94t-105 -312z" />
<glyph unicode="&#xf9;" d="M100 178q0 57 21 129l155 576h-114l16 39h135q252 0 371 51l-166 -584q-61 -217 -61 -256q0 -51 51 -51q72 0 144.5 96t103.5 205l153 539h377l-151 -533q-61 -217 -62 -256q0 -51 51 -51q29 0 75 51t67 94l32 -18q-51 -111 -143 -174.5t-213 -63.5q-104 0 -160.5 49.5 t-56.5 141.5v37h-4q-63 -98 -175 -163t-231 -65q-94 0 -154.5 57.5t-60.5 149.5zM518 1403q0 80 125 80q74 0 111 -25.5t77 -95.5l175 -297h-41l-392 258q-55 35 -55 80z" />
<glyph unicode="&#xfa;" d="M100 178q0 57 21 129l155 576h-114l16 39h135q252 0 371 51l-166 -584q-61 -217 -61 -256q0 -51 51 -51q72 0 144.5 96t103.5 205l153 539h377l-151 -533q-61 -217 -62 -256q0 -51 51 -51q29 0 75 51t67 94l32 -18q-51 -111 -143 -174.5t-213 -63.5q-104 0 -160.5 49.5 t-56.5 141.5v37h-4q-63 -98 -175 -163t-231 -65q-94 0 -154.5 57.5t-60.5 149.5zM764 1065l174 297q41 70 78 95.5t110 25.5q125 0 125 -80q0 -45 -55 -80l-391 -258h-41z" />
<glyph unicode="&#xfb;" d="M100 178q0 57 21 129l155 576h-114l16 39h135q252 0 371 51l-166 -584q-61 -217 -61 -256q0 -51 51 -51q72 0 144.5 96t103.5 205l153 539h377l-151 -533q-61 -217 -62 -256q0 -51 51 -51q29 0 75 51t67 94l32 -18q-51 -111 -143 -174.5t-213 -63.5q-104 0 -160.5 49.5 t-56.5 141.5v37h-4q-63 -98 -175 -163t-231 -65q-94 0 -154.5 57.5t-60.5 149.5zM500 1065l317 418h215l135 -418h-51l-217 229l-332 -229h-67z" />
<glyph unicode="&#xfc;" d="M100 178q0 57 21 129l155 576h-114l16 39h135q252 0 371 51l-166 -584q-61 -217 -61 -256q0 -51 51 -51q72 0 144.5 96t103.5 205l153 539h377l-151 -533q-61 -217 -62 -256q0 -51 51 -51q29 0 75 51t67 94l32 -18q-51 -111 -143 -174.5t-213 -63.5q-104 0 -160.5 49.5 t-56.5 141.5v37h-4q-63 -98 -175 -163t-231 -65q-94 0 -154.5 57.5t-60.5 149.5zM440 1257.5q0 69.5 50.5 121t122 51.5t121.5 -51.5t50 -121t-50 -121t-121.5 -51.5t-122 51.5t-50.5 121zM915 1257.5q0 69.5 50.5 121t122 51.5t122 -51.5t50.5 -121t-50.5 -121t-122 -51.5 t-122 51.5t-50.5 121z" />
<glyph unicode="&#xfd;" horiz-adv-x="1251" d="M-10 -340q0 78 47 124t114.5 46t112.5 -40t45 -116q0 -84 -61 -123v-4q162 35 266 242l-235 905q-10 37 -16.5 53.5t-16.5 28.5t-25 12q-41 0 -131 -178l-37 13q53 137 157.5 243.5t227.5 106.5q86 0 134.5 -51.5t76.5 -184.5l96 -422h5l174 433q47 115 97 170t119.5 55 t116 -44t46.5 -122t-47.5 -122t-114.5 -44q-57 0 -103.5 33t-64.5 86h-4l-301 -740q-125 -307 -244 -416.5t-262 -109.5q-76 0 -124 48t-48 118zM707 1065l174 297q41 70 77.5 95.5t110.5 25.5q125 0 125 -80q0 -45 -55 -80l-391 -258h-41z" />
<glyph unicode="&#xfe;" d="M-201 -481l17 39h118l508 1845h-141l16 39h179q252 0 350 63l-199 -731h4q135 199 330 199q154 0 238 -102.5t84 -260.5q0 -236 -164 -431t-402 -195q-197 0 -250 168h-4l-166 -594h125l-16 -39h-627zM518 209q0 -51 33 -100.5t84 -49.5q70 0 107.5 59.5t78.5 211.5 q125 446 125 491q0 76 -78 76q-49 0 -104 -52t-96 -124q-47 -82 -98.5 -257t-51.5 -255z" />
<glyph unicode="&#xff;" horiz-adv-x="1251" d="M-10 -340q0 78 47 124t114.5 46t112.5 -40t45 -116q0 -84 -61 -123v-4q162 35 266 242l-235 905q-10 37 -16.5 53.5t-16.5 28.5t-25 12q-41 0 -131 -178l-37 13q53 137 157.5 243.5t227.5 106.5q86 0 134.5 -51.5t76.5 -184.5l96 -422h5l174 433q47 115 97 170t119.5 55 t116 -44t46.5 -122t-47.5 -122t-114.5 -44q-57 0 -103.5 33t-64.5 86h-4l-301 -740q-125 -307 -244 -416.5t-262 -109.5q-76 0 -124 48t-48 118zM432 1257.5q0 69.5 50 120.5t122 51t122 -51t50 -120.5t-50 -121t-122 -51.5t-122 51.5t-50 121zM907 1257.5 q0 69.5 50.5 120.5t122 51t121.5 -51t50 -120.5t-50 -121t-121.5 -51.5t-122 51.5t-50.5 121z" />
<glyph unicode="&#x152;" horiz-adv-x="2048" d="M117 524q0 244 97 455t287.5 345t436.5 134q53 0 159.5 -8t180.5 -8h862l-127 -465h-45q6 92 6 110q0 168 -69.5 242t-216.5 74h-109l-180 -635h43q143 0 215 45t131 174h43l-152 -526h-43q4 45 4 84q0 100 -42 142t-168 42h-44l-196 -690h141q180 0 320.5 113.5 t222.5 298.5h43l-131 -451h-868q-43 0 -149.5 -8t-170.5 -8q-236 0 -358.5 138t-122.5 402zM498 246q0 -102 46 -162.5t130 -60.5q53 0 94 37.5t59 103.5l293 1030q27 86 27 131q0 43 -37 68.5t-90 25.5q-170 0 -281 -239q-109 -238 -175 -505t-66 -429z" />
<glyph unicode="&#x153;" horiz-adv-x="1820" d="M84 414q0 72 20.5 145.5t67.5 148t116.5 133t176 95.5t237.5 37q223 0 353 -121q184 121 364 121q156 0 280 -68.5t124 -206.5q0 -104 -72 -175.5t-166 -99.5t-199 -28q-82 0 -225 11q-18 -35 -38.5 -117t-20.5 -121q0 -72 51 -108.5t135 -36.5q72 0 181.5 51t193.5 131 l23 -33q-74 -82 -208.5 -141.5t-269.5 -59.5q-57 0 -147 24.5t-146 70.5q-178 -94 -360 -95q-211 0 -341 115t-130 328zM416 129q0 -119 119 -119q61 0 105 47t79 162l29 98q125 414 124 492q0 49 -30 89q-29 38 -90 38h-7q-80 -2 -129 -89t-100 -278q-100 -374 -100 -440z M1171 440q10 0 29 -2t34 -3t30 -1q61 0 103 39t75 133q62 185 61 239q0 89 -96 89q-94 0 -127 -115z" />
<glyph unicode="&#x178;" horiz-adv-x="1478" d="M248 0l10 39h131l152 534l-148 830h-125l11 39h667l-10 -39h-127l135 -752l311 461q53 78 54 156q0 59 -37 97t-94 38l10 39h491l-10 -39q-100 0 -168.5 -57.5t-150.5 -180.5l-375 -553l-162 -573h133l-12 -39h-686zM645 1691.5q0 69.5 50 121t122 51.5t122 -51.5 t50 -121t-50 -120.5t-122 -51t-122 51t-50 120.5zM1120 1691.5q0 69.5 50.5 121t122 51.5t121.5 -51.5t50 -121t-50 -120.5t-121.5 -51t-122 51t-50.5 120.5z" />
<glyph unicode="&#x2c6;" horiz-adv-x="569" d="M100 1065l318 418h215l135 -418h-51l-217 229l-332 -229h-68z" />
<glyph unicode="&#x2dc;" horiz-adv-x="569" d="M66 1143q33 115 100 196.5t172 81.5q61 0 183 -47t163 -47q88 0 129 98h43q-33 -119 -100.5 -200.5t-171.5 -81.5q-61 0 -183 47t-163 47q-88 0 -129 -94h-43z" />
<glyph unicode="&#x2013;" horiz-adv-x="1024" d="M-20 416l40 205h1024l-40 -205h-1024z" />
<glyph unicode="&#x2014;" horiz-adv-x="2048" d="M-20 416l40 205h2048l-40 -205h-2048z" />
<glyph unicode="&#x2018;" horiz-adv-x="681" d="M248 983q0 131 95 262t284 225l14 -30q-219 -119 -264 -293q37 4 55 4q82 0 133 -51t51 -133q0 -78 -54 -131.5t-130 -53.5q-80 0 -132 54.5t-52 146.5z" />
<glyph unicode="&#x2019;" horiz-adv-x="681" d="M301 813q219 119 264 293q-37 -4 -55 -4q-82 0 -133 51t-51 133q0 78 54 131t130 53q80 0 132 -54t52 -146q0 -131 -95 -262t-284 -226z" />
<glyph unicode="&#x201a;" horiz-adv-x="681" d="M41 -305q219 119 264 293q-37 -4 -55 -4q-82 0 -133 51t-51 133q0 78 53 131t131 53q80 0 132 -54t52 -146q0 -131 -95 -262.5t-284 -225.5z" />
<glyph unicode="&#x201c;" horiz-adv-x="1138" d="M248 983q0 131 95 262t284 225l14 -30q-219 -119 -264 -293q37 4 55 4q82 0 133 -51t51 -133q0 -78 -54 -131.5t-130 -53.5q-80 0 -132 54.5t-52 146.5zM705 983q0 131 95 262t283 225l15 -30q-219 -119 -264 -293q37 4 55 4q82 0 133 -51t51 -133q0 -78 -53 -131.5 t-131 -53.5q-80 0 -132 54.5t-52 146.5z" />
<glyph unicode="&#x201d;" horiz-adv-x="1138" d="M301 813q219 119 264 293q-37 -4 -55 -4q-82 0 -133 51t-51 133q0 78 54 131t130 53q80 0 132 -54t52 -146q0 -131 -95 -262t-284 -226zM758 813q219 119 264 293q-37 -4 -55 -4q-82 0 -133.5 51t-51.5 133q0 78 53.5 131t131.5 53q80 0 132 -54t52 -146q0 -131 -95 -262 t-284 -226z" />
<glyph unicode="&#x201e;" horiz-adv-x="1138" d="M41 -305q219 119 264 293q-37 -4 -55 -4q-82 0 -133 51t-51 133q0 78 53 131t131 53q80 0 132 -54t52 -146q0 -131 -95 -262.5t-284 -225.5zM498 -305q219 119 264 293q-37 -4 -55 -4q-82 0 -133.5 51t-51.5 133q0 78 54.5 131t130.5 53q80 0 132 -54t52 -146 q0 -131 -95.5 -262.5t-283.5 -225.5z" />
<glyph unicode="&#x2022;" horiz-adv-x="1024" d="M188 720.5q0 149.5 105.5 255t255 105.5t255 -105.5t105.5 -255t-105.5 -255t-255 -105.5t-255 105.5t-105.5 255z" />
<glyph unicode="&#x2026;" horiz-adv-x="2048" d="M61 168q0 78 53.5 131t131.5 53t131 -53t53 -131t-53 -131t-131 -53t-131.5 53t-53.5 131zM743 168q0 78 54.5 131t130.5 53t130 -53t54 -131t-54 -131t-130 -53t-130.5 53t-54.5 131zM1425 168q0 78 53.5 131t131.5 53t131 -53t53 -131t-53 -131t-131 -53t-131.5 53 t-53.5 131z" />
<glyph unicode="&#x2039;" horiz-adv-x="681" d="M139 557l256 274h228l-275 -284l152 -342h-195z" />
<glyph unicode="&#x203a;" horiz-adv-x="681" d="M59 205l275 284l-152 342h195l166 -352l-256 -274h-228z" />
<glyph unicode="&#x20ac;" horiz-adv-x="1253" d="M66 545l59 90h98q2 23 13 67q4 35 14 60h-139l59 92h106q96 283 262.5 429.5t440.5 146.5q260 0 346 -111l-27 -193h-49q1 9 1 19q0 91 -56 137q-61 51 -176 51q-170 0 -277.5 -123t-179.5 -356h559l-59 -92h-524q0 -4 -6.5 -27.5t-8.5 -36.5q-10 -45 -12 -63h467 l-59 -90h-422q-11 -74 -11 -138q0 -128 44 -208q67 -121 225 -121q104 0 190 50t127 157h49l-53 -185q-133 -115 -395 -114q-461 0 -461 449q0 52 6 110h-151z" />
<glyph unicode="&#x2122;" horiz-adv-x="2048" d="M195 1262v180h776v-180h-51q0 55 -37 98t-95 43h-90v-750h107v-39h-445v39h109v750h-92q-55 0 -93 -43t-38 -98h-51zM1049 614v39h106v750h-106v39h278l268 -553l289 553h273v-39h-107v-750h104v-39h-440v39h107v531h-4l-293 -568h-33l-268 568h-4v-531h106v-39h-276z " />
<glyph unicode="&#xe000;" horiz-adv-x="975" d="M0 975h975v-975h-975v975z" />
<glyph unicode="&#xfb01;" d="M-279 -358q-1 10 -1 20q0 47 32 81q39 42 92 42q61 0 98.5 -33t37.5 -92q0 -43 -25 -78t-66 -43q8 -6 37 -6q68 0 110 74t73 274q59 389 114 688q25 131 74 314h-199l17 39h194q92 246 277.5 397t441.5 151q121 0 225.5 -62t104.5 -175q0 -78 -50.5 -123t-119.5 -45 q-84 0 -129 50t-45 118q0 63 44 110.5t113 51.5v4q-68 33 -161 33q-143 0 -223 -118t-128 -392h172h144q254 0 373 51l-226 -801q-8 -33 -8 -49q0 -41 29 -41q57 0 141 137l35 -20q-121 -227 -342 -228q-94 0 -156.5 46t-62.5 147q0 57 51 246l133 473h-289l-35 -192.5 t-38.5 -190.5t-50 -204t-64.5 -189.5t-84 -191.5t-104.5 -166t-133.5 -155q-104 -100 -231 -100q-171 1 -191 148z" />
<glyph unicode="&#xfb02;" d="M-279 -358q-1 10 -1 20q0 47 32 81q39 42 92 42q61 0 98.5 -33t37.5 -92q0 -43 -25 -78t-66 -43q8 -6 37 -6q68 0 110 74t73 274q59 389 114 688q25 131 74 314h-199l17 39h194q61 225 231.5 386.5t385.5 161.5q78 0 147 -28h68q252 0 350 63l-369 -1333q-8 -33 -8 -49 q0 -41 29 -41q45 0 151 145l31 -28q-152 -227 -362 -228q-205 0 -205 179q0 59 37 194l229 834q-25 -6 -49 -7q-53 0 -86 36t-33 73q0 111 102 143v4q-16 6 -45 7q-172 0 -254 -512h168l-16 -39h-158l-35 -192.5t-38.5 -190.5t-50 -204t-64.5 -189.5t-84 -191.5t-104.5 -166 t-133.5 -155q-104 -100 -231 -100q-171 1 -191 148z" />
<glyph unicode="&#xfb03;" horiz-adv-x="2390" d="M-279 -358q-1 10 -1 20q0 47 32 81q39 42 92 42q61 0 98.5 -33t37.5 -92q0 -43 -25 -78t-66 -43q8 -6 37 -6q68 0 110 74t73 274q59 389 114 688q25 131 74 314h-199l17 39h194q31 98 80 190t119 175t168 133t209 50q80 0 135 -40.5t55 -108.5q0 -61 -34.5 -99t-94 -38 t-94.5 35.5t-35 87.5q0 37 19.5 70.5t54.5 45.5q-10 8 -37 9q-127 0 -172 -338l-23 -172h218l-17 -39h-207l-35 -192.5t-38.5 -190.5t-50 -204t-64.5 -189.5t-84 -191.5t-104.5 -166t-133.5 -155q-104 -100 -231 -100q-171 1 -191 148zM518 -358q-1 10 -1 20q0 47 32 81 q39 42 92 42q61 0 98 -33t37 -92q0 -43 -24.5 -78t-65.5 -43q8 -6 37 -6q68 0 109.5 74t72.5 274q59 389 115 688q25 131 74 314h-199l16 39h195q31 98 80 190t118.5 175t168 133t208.5 50q80 0 135.5 -40.5t55.5 -108.5q0 -61 -35 -99t-94.5 -38t-94 35.5t-34.5 87.5 q0 37 19.5 70.5t54.5 45.5q-10 8 -37 9q-127 0 -172 -338l-23 -172h217l-16 -39h-207l-35 -192.5t-38.5 -190.5t-50 -204t-64.5 -189.5t-84 -191.5t-104.5 -166t-133.5 -155q-104 -100 -231 -100q-171 1 -191 148zM1720 164q0 57 52 246l133 473h-127l16 39h143 q254 0 373 51l-225 -801q-8 -33 -8 -49q0 -41 28 -41q57 0 142 137l34 -20q-121 -227 -342 -228q-94 0 -156.5 46.5t-62.5 146.5zM2001 1257.5q0 77.5 54 131t130 53.5t130.5 -53.5t54.5 -131t-54.5 -131t-130.5 -53.5t-130 53.5t-54 131z" />
<glyph unicode="&#xfb04;" horiz-adv-x="2390" d="M-279 -358q-1 10 -1 20q0 47 32 81q39 42 92 42q61 0 98.5 -33t37.5 -92q0 -43 -25 -78t-66 -43q8 -6 37 -6q68 0 110 74t73 274q59 389 114 688q25 131 74 314h-199l17 39h194q31 98 80 190t119 175t168 133t209 50q80 0 135 -40.5t55 -108.5q0 -61 -34.5 -99t-94 -38 t-94.5 35.5t-35 87.5q0 37 19.5 70.5t54.5 45.5q-10 8 -37 9q-127 0 -172 -338l-23 -172h218l-17 -39h-207l-35 -192.5t-38.5 -190.5t-50 -204t-64.5 -189.5t-84 -191.5t-104.5 -166t-133.5 -155q-104 -100 -231 -100q-171 1 -191 148zM518 -358q-1 10 -1 20q0 47 32 81 q39 42 92 42q61 0 98 -33t37 -92q0 -43 -24.5 -78t-65.5 -43q8 -6 37 -6q68 0 109.5 74t72.5 274q59 389 115 688q25 131 74 314h-199l16 39h195q31 98 80 190t118.5 175t168 133t208.5 50q80 0 135.5 -40.5t55.5 -108.5q0 -61 -35 -99t-94.5 -38t-94 35.5t-34.5 87.5 q0 37 19.5 70.5t54.5 45.5q-10 8 -37 9q-127 0 -172 -338l-23 -172h217l-16 -39h-207l-35 -192.5t-38.5 -190.5t-50 -204t-64.5 -189.5t-84 -191.5t-104.5 -166t-133.5 -155q-104 -100 -231 -100q-171 1 -191 148zM1720 150q0 59 37 194l293 1059h-141l16 39h178 q252 0 351 63l-369 -1333q-8 -33 -8 -49q0 -41 28 -41q45 0 152 145l31 -28q-152 -227 -363 -228q-205 1 -205 179z" />
</font>
</defs>
</svg>
